<?xml version="1.0" encoding="UTF-8" standalone="no"?>
<svg width="450.497mm" height="82.55mm"
 xmlns="http://www.w3.org/2000/svg" xmlns:xlink="http://www.w3.org/1999/xlink"  version="1.2" baseProfile="tiny">
<title>Qt SVG Document</title>
<desc>Generated with Qt</desc>
<defs>
</defs>
<g fill="none" stroke="black" stroke-width="1" fill-rule="evenodd" stroke-linecap="square" stroke-linejoin="bevel" >

<g fill="none" stroke="#000000" stroke-opacity="1" stroke-width="1" stroke-linecap="square" stroke-linejoin="bevel" transform="matrix(1,0,0,1,0,0)"
font-family="Ubuntu" font-size="11" font-weight="400" font-style="normal" 
>
</g>

<g fill="none" stroke="#000000" stroke-opacity="1" stroke-width="1" stroke-linecap="square" stroke-linejoin="bevel" transform="matrix(1,0,0,1,0,0)"
font-family="Ubuntu" font-size="11" font-weight="400" font-style="normal" 
>
</g>

<g fill="none" stroke="#000000" stroke-opacity="1" stroke-width="1" stroke-linecap="square" stroke-linejoin="bevel" transform="matrix(2,0,0,2,1.42109e-14,234)"
font-family="Ubuntu" font-size="11" font-weight="400" font-style="normal" 
>
</g>

<g fill="#ffffff" fill-opacity="1" stroke="none" transform="matrix(2,0,0,2,1.42109e-14,234)"
font-family="Ubuntu" font-size="11" font-weight="400" font-style="normal" 
>
<rect x="-7.10543e-15" y="-117" width="638.484" height="117"/>
</g>

<g fill="none" stroke="#000000" stroke-opacity="1" stroke-width="1" stroke-linecap="square" stroke-linejoin="bevel" transform="matrix(2,0,0,2,1.42109e-14,234)"
font-family="Ubuntu" font-size="11" font-weight="400" font-style="normal" 
>
</g>

<g fill="none" stroke="#000000" stroke-opacity="1" stroke-width="1" stroke-linecap="square" stroke-linejoin="bevel" transform="matrix(2,0,0,2,1.42109e-14,234)"
font-family="Ubuntu" font-size="11" font-weight="400" font-style="normal" 
>
</g>

<g fill="none" stroke="#000000" stroke-opacity="1" stroke-width="1" stroke-linecap="square" stroke-linejoin="bevel" transform="matrix(2,0,0,2,1.42109e-14,234)"
font-family="Ubuntu" font-size="11" font-weight="400" font-style="normal" 
>
</g>

<g fill="none" stroke="#000000" stroke-opacity="1" stroke-width="1" stroke-linecap="square" stroke-linejoin="bevel" transform="matrix(2,0,0,2,1.42109e-14,234)"
font-family="Ubuntu" font-size="11" font-weight="400" font-style="normal" 
>
</g>

<g fill="none" stroke="#000000" stroke-opacity="1" stroke-width="1" stroke-linecap="square" stroke-linejoin="round" transform="matrix(2,0,0,2,1.42109e-14,234)"
font-family="Ubuntu" font-size="11" font-weight="400" font-style="normal" 
>
<rect x="363.69" y="-39.5" width="141.999" height="35"/>
</g>

<g fill="none" stroke="#000000" stroke-opacity="1" stroke-width="1" stroke-linecap="square" stroke-linejoin="bevel" transform="matrix(2,0,0,2,1.42109e-14,234)"
font-family="Ubuntu" font-size="11" font-weight="400" font-style="normal" 
>
</g>

<g fill="none" stroke="#000000" stroke-opacity="1" stroke-width="1" stroke-linecap="square" stroke-linejoin="bevel" transform="matrix(2,0,0,2,770.146,176)"
font-family="Ubuntu" font-size="11" font-weight="400" font-style="normal" 
>
</g>

<g fill="none" stroke="#000000" stroke-opacity="1" stroke-width="1" stroke-linecap="square" stroke-linejoin="bevel" transform="matrix(2,0,0,2,770.146,176)"
font-family="sans" font-size="11" font-weight="100" font-style="normal" 
>
</g>

<g fill="#000000" fill-opacity="1" stroke="#000000" stroke-opacity="1" stroke-width="1" stroke-linecap="square" stroke-linejoin="round" transform="matrix(2,0,0,2,770.146,176)"
font-family="sans" font-size="11" font-weight="100" font-style="normal" 
>
<path vector-effect="none" fill-rule="nonzero" d="M2.96875,2.98438 L3.53125,2.98438 L0.734375,12.0156 L0.171875,12.0156 L2.96875,2.98438 M5.4375,9.64063 L5.4375,13.2813 L4.95313,13.2813 L4.95313,4.98438 L5.4375,4.98438 L5.4375,6.35938 C5.66667,5.83854 5.91146,5.47917 6.17188,5.28125 C6.57813,4.98958 6.96354,4.84375 7.32813,4.84375 C8.03646,4.84375 8.6276,5.13281 9.10156,5.71094 C9.57552,6.28906 9.8125,7.05208 9.8125,8 C9.8125,8.94792 9.57552,9.71094 9.10156,10.2891 C8.6276,10.8672 8.03646,11.1563 7.32813,11.1563 C6.96354,11.1563 6.57813,11.0052 6.17188,10.7031 C5.91146,10.5156 5.66667,10.1615 5.4375,9.64063 M8.67188,10.0938 C9.08854,9.67708 9.29688,8.97917 9.29688,8 C9.29688,7.02083 9.08854,6.32292 8.67188,5.90625 C8.25521,5.48958 7.81771,5.28125 7.35938,5.28125 C6.91146,5.28125 6.47917,5.48958 6.0625,5.90625 C5.65625,6.32292 5.45313,7.02083 5.45313,8 C5.45313,8.97917 5.65625,9.67708 6.0625,10.0938 C6.47917,10.5104 6.91146,10.7188 7.35938,10.7188 C7.81771,10.7188 8.25521,10.5104 8.67188,10.0938 M15.1875,5.40625 C15.1042,5.36458 14.9948,5.33333 14.8594,5.3125 C14.7344,5.29167 14.5833,5.28125 14.4063,5.28125 C13.7917,5.28125 13.2865,5.50521 12.8906,5.95313 C12.5677,6.31771 12.4063,6.94271 12.4063,7.82813 L12.4063,11 L11.9219,11 L11.9219,4.98438 L12.4063,4.98438 L12.4063,6.10938 C12.5729,5.78646 12.8021,5.51563 13.0938,5.29688 C13.4896,4.99479 13.9583,4.84375 14.5,4.84375 C14.6458,4.84375 14.7708,4.84896 14.875,4.85938 C14.9792,4.85938 15.0833,4.86979 15.1875,4.89063 L15.1875,5.40625 M20.0156,6.01563 C19.6615,5.52604 19.1771,5.28125 18.5625,5.28125 C17.9479,5.28125 17.4635,5.52604 17.1094,6.01563 C16.7552,6.49479 16.5781,7.15104 16.5781,7.98438 C16.5781,8.83854 16.7552,9.51042 17.1094,10 C17.4635,10.4896 17.9479,10.7344 18.5625,10.7344 C19.1771,10.7344 19.6615,10.4896 20.0156,10 C20.3698,9.5 20.5469,8.82813 20.5469,7.98438 C20.5469,7.16146 20.3698,6.50521 20.0156,6.01563 M18.5625,4.84375 C19.3229,4.84375 19.9271,5.13021 20.375,5.70313 C20.8229,6.27604 21.0469,7.03646 21.0469,7.98438 C21.0469,8.97396 20.8229,9.75521 20.375,10.3281 C19.9271,10.901 19.3229,11.1875 18.5625,11.1875 C17.7813,11.1875 17.1667,10.901 16.7188,10.3281 C16.2813,9.75521 16.0625,8.97396 16.0625,7.98438 C16.0625,7.02604 16.2865,6.26302 16.7344,5.69531 C17.1823,5.1276 17.7917,4.84375 18.5625,4.84375 M27.2656,5.28125 L27.2656,5.79688 C26.974,5.61979 26.7292,5.5 26.5313,5.4375 C26.1979,5.33333 25.8802,5.28125 25.5781,5.28125 C24.7135,5.28125 24.0938,5.5026 23.7188,5.94531 C23.3438,6.38802 23.1563,7.07292 23.1563,8 C23.1563,8.9375 23.3438,9.6276 23.7188,10.0703 C24.0938,10.513 24.7135,10.7344 25.5781,10.7344 C25.8698,10.7344 26.151,10.6927 26.4219,10.6094 C26.7135,10.5365 26.9948,10.4219 27.2656,10.2656 L27.2656,10.7656 C26.9948,10.901 26.7135,11 26.4219,11.0625 C26.1198,11.125 25.8229,11.1563 25.5313,11.1563 C24.6563,11.1563 23.9583,10.9167 23.4375,10.4375 C22.9167,9.95833 22.6563,9.14323 22.6563,7.99219 C22.6563,6.84115 22.9167,6.02604 23.4375,5.54688 C23.9583,5.07813 24.6563,4.84375 25.5313,4.84375 C25.8229,4.84375 26.1302,4.88542 26.4531,4.96875 C26.776,5.04167 27.0469,5.14583 27.2656,5.28125 M33.8906,7.75 L33.8906,8.0625 L29.3281,8.0625 C29.3281,9.02083 29.5156,9.69792 29.8906,10.0938 C30.3073,10.5208 30.9219,10.7344 31.7344,10.7344 C31.9531,10.7344 32.2396,10.6875 32.5938,10.5938 C32.9479,10.5 33.3021,10.3594 33.6563,10.1719 L33.6563,10.6875 C33.3021,10.8438 32.9401,10.9609 32.5703,11.0391 C32.2005,11.1172 31.9063,11.1563 31.6875,11.1563 C30.7604,11.1563 30.0625,10.9063 29.5938,10.4063 C29.0833,9.875 28.8281,9.09375 28.8281,8.0625 C28.8281,6.98958 29.0573,6.1875 29.5156,5.65625 C29.9948,5.11458 30.6615,4.84375 31.5156,4.84375 C32.2969,4.84375 32.8906,5.10417 33.2969,5.625 C33.6927,6.16667 33.8906,6.875 33.8906,7.75 M33.3906,7.64063 C33.3906,6.79688 33.1979,6.18229 32.8125,5.79688 C32.5,5.45313 32.0677,5.28125 31.5156,5.28125 C30.9219,5.28125 30.4219,5.45833 30.0156,5.8125 C29.6406,6.14583 29.4167,6.75521 29.3438,7.64063 L33.3906,7.64063 M39.375,5.15625 L39.375,5.70313 C39.0208,5.50521 38.8021,5.39583 38.7188,5.375 C38.4688,5.32292 38.1563,5.29167 37.7813,5.28125 C37.2188,5.28125 36.776,5.39063 36.4531,5.60938 C36.2031,5.79688 36.0781,6.11458 36.0781,6.5625 C36.0781,6.875 36.1979,7.11458 36.4375,7.28125 C36.6771,7.46875 37.026,7.61458 37.4844,7.71875 L37.8281,7.78125 C38.401,7.90625 38.8333,8.08333 39.125,8.3125 C39.4688,8.58333 39.6458,8.92708 39.6563,9.34375 C39.6563,9.90625 39.4896,10.349 39.1563,10.6719 C38.8021,10.9948 38.224,11.1563 37.4219,11.1563 C36.9844,11.1563 36.651,11.125 36.4219,11.0625 C36.1406,10.9896 35.849,10.8958 35.5469,10.7813 L35.5469,10.1563 C35.9844,10.4063 36.2656,10.5521 36.3906,10.5938 C36.7448,10.6875 37.099,10.7344 37.4531,10.7344 C38.026,10.7344 38.4531,10.6146 38.7344,10.375 C39.0156,10.125 39.1563,9.80729 39.1563,9.42188 C39.1563,9.08854 39.0625,8.84896 38.875,8.70313 C38.6042,8.48438 38.1771,8.30729 37.5938,8.17188 L37.25,8.09375 C36.7396,7.96875 36.3542,7.80208 36.0938,7.59375 C35.7604,7.32292 35.5938,6.99479 35.5938,6.60938 C35.5938,5.98438 35.7943,5.53385 36.1953,5.25781 C36.5964,4.98177 37.0885,4.84375 37.6719,4.84375 C38.1719,4.84375 38.5156,4.86979 38.7031,4.92188 C38.9323,4.98438 39.1563,5.0625 39.375,5.15625 M45.0938,5.15625 L45.0938,5.70313 C44.7396,5.50521 44.5208,5.39583 44.4375,5.375 C44.1875,5.32292 43.875,5.29167 43.5,5.28125 C42.9375,5.28125 42.4948,5.39063 42.1719,5.60938 C41.9219,5.79688 41.7969,6.11458 41.7969,6.5625 C41.7969,6.875 41.9167,7.11458 42.1563,7.28125 C42.3958,7.46875 42.7448,7.61458 43.2031,7.71875 L43.5469,7.78125 C44.1198,7.90625 44.5521,8.08333 44.8438,8.3125 C45.1875,8.58333 45.3646,8.92708 45.375,9.34375 C45.375,9.90625 45.2083,10.349 44.875,10.6719 C44.5208,10.9948 43.9427,11.1563 43.1406,11.1563 C42.7031,11.1563 42.3698,11.125 42.1406,11.0625 C41.8594,10.9896 41.5677,10.8958 41.2656,10.7813 L41.2656,10.1563 C41.7031,10.4063 41.9844,10.5521 42.1094,10.5938 C42.4635,10.6875 42.8177,10.7344 43.1719,10.7344 C43.7448,10.7344 44.1719,10.6146 44.4531,10.375 C44.7344,10.125 44.875,9.80729 44.875,9.42188 C44.875,9.08854 44.7813,8.84896 44.5938,8.70313 C44.3229,8.48438 43.8958,8.30729 43.3125,8.17188 L42.9688,8.09375 C42.4583,7.96875 42.0729,7.80208 41.8125,7.59375 C41.4792,7.32292 41.3125,6.99479 41.3125,6.60938 C41.3125,5.98438 41.513,5.53385 41.9141,5.25781 C42.3151,4.98177 42.8073,4.84375 43.3906,4.84375 C43.8906,4.84375 44.2344,4.86979 44.4219,4.92188 C44.651,4.98438 44.875,5.0625 45.0938,5.15625 M52.0938,7.75 L52.0938,8.0625 L47.5313,8.0625 C47.5313,9.02083 47.7188,9.69792 48.0938,10.0938 C48.5104,10.5208 49.125,10.7344 49.9375,10.7344 C50.1563,10.7344 50.4427,10.6875 50.7969,10.5938 C51.151,10.5 51.5052,10.3594 51.8594,10.1719 L51.8594,10.6875 C51.5052,10.8438 51.1432,10.9609 50.7734,11.0391 C50.4036,11.1172 50.1094,11.1563 49.8906,11.1563 C48.9635,11.1563 48.2656,10.9063 47.7969,10.4063 C47.2865,9.875 47.0313,9.09375 47.0313,8.0625 C47.0313,6.98958 47.2604,6.1875 47.7188,5.65625 C48.1979,5.11458 48.8646,4.84375 49.7188,4.84375 C50.5,4.84375 51.0938,5.10417 51.5,5.625 C51.8958,6.16667 52.0938,6.875 52.0938,7.75 M51.5938,7.64063 C51.5938,6.79688 51.401,6.18229 51.0156,5.79688 C50.7031,5.45313 50.2708,5.28125 49.7188,5.28125 C49.125,5.28125 48.625,5.45833 48.2188,5.8125 C47.8438,6.14583 47.6198,6.75521 47.5469,7.64063 L51.5938,7.64063 M58.1719,6.35938 L58.1719,2.64063 L58.6406,2.64063 L58.6406,11 L58.1719,11 L58.1719,9.64063 C57.9427,10.1615 57.6927,10.5156 57.4219,10.7031 C57.026,11.0052 56.6458,11.1563 56.2813,11.1563 C55.5729,11.1563 54.9818,10.8672 54.5078,10.2891 C54.0339,9.71094 53.7969,8.94792 53.7969,8 C53.7969,7.05208 54.0339,6.28906 54.5078,5.71094 C54.9818,5.13281 55.5729,4.84375 56.2813,4.84375 C56.6458,4.84375 57.026,4.98958 57.4219,5.28125 C57.6927,5.47917 57.9427,5.83854 58.1719,6.35938 M54.9375,5.90625 C54.5208,6.32292 54.3125,7.02083 54.3125,8 C54.3125,8.97917 54.5208,9.67708 54.9375,10.0938 C55.3542,10.5104 55.7917,10.7188 56.25,10.7188 C56.6979,10.7188 57.1302,10.5104 57.5469,10.0938 C57.9531,9.67708 58.1563,8.97917 58.1563,8 C58.1563,7.02083 57.9531,6.32292 57.5469,5.90625 C57.1302,5.48958 56.6979,5.28125 56.25,5.28125 C55.7917,5.28125 55.3542,5.48958 54.9375,5.90625 M65.5,13.1719 L65.5,13.5938 L59.7813,13.5938 L59.7813,13.1719 L65.5,13.1719 M66.625,4.98438 L67.125,4.98438 L67.125,11 L66.625,11 L66.625,4.98438 M66.625,2.64063 L67.125,2.64063 L67.125,3.3125 L66.625,3.3125 L66.625,2.64063 M74.0156,6.29688 C74.2031,5.80729 74.4948,5.44271 74.8906,5.20313 C75.276,4.96354 75.7292,4.84375 76.25,4.84375 C76.7708,4.84375 77.1875,5.02604 77.5,5.39063 C77.8229,5.75521 77.9844,6.41667 77.9844,7.375 L77.9844,11 L77.5,11 L77.5,7.40625 C77.5,6.57292 77.3854,6.01042 77.1563,5.71875 C76.9271,5.42708 76.6198,5.28125 76.2344,5.28125 C75.6823,5.28125 75.1979,5.44792 74.7813,5.78125 C74.3125,6.15625 74.0781,6.76042 74.0781,7.59375 L74.0781,11 L73.5938,11 L73.5938,7.40625 C73.5938,6.60417 73.4818,6.04948 73.2578,5.74219 C73.0339,5.4349 72.724,5.28125 72.3281,5.28125 C71.776,5.28125 71.2917,5.45313 70.875,5.79688 C70.4063,6.16146 70.1719,6.76042 70.1719,7.59375 L70.1719,11 L69.6875,11 L69.6875,4.98438 L70.1719,4.98438 L70.1719,6.10938 C70.349,5.71354 70.625,5.40104 71,5.17188 C71.3646,4.95313 71.8177,4.84375 72.3594,4.84375 C72.7135,4.84375 73.0521,4.95833 73.375,5.1875 C73.625,5.375 73.8385,5.74479 74.0156,6.29688 M82.7969,7.60938 C81.9948,7.60938 81.4193,7.75 81.0703,8.03125 C80.7214,8.3125 80.5469,8.72396 80.5469,9.26563 C80.5469,9.79688 80.6927,10.1745 80.9844,10.3984 C81.276,10.6224 81.6198,10.7344 82.0156,10.7344 C82.7656,10.7344 83.3073,10.4167 83.6406,9.78125 C83.974,9.13542 84.1406,8.53125 84.1406,7.96875 L84.1406,7.60938 L82.7969,7.60938 M84.6406,7.5625 L84.6406,11 L84.1406,11 L84.1406,9.35938 C83.8698,10.1615 83.5052,10.6719 83.0469,10.8906 C82.6927,11.0677 82.3333,11.1563 81.9688,11.1563 C81.375,11.1563 80.9063,10.9948 80.5625,10.6719 C80.2188,10.349 80.0469,9.8776 80.0469,9.25781 C80.0469,8.63802 80.2708,8.14063 80.7188,7.76563 C81.1667,7.39063 81.8958,7.20313 82.9063,7.20313 L84.1406,7.20313 L84.1406,7.10938 C84.1406,6.57813 83.9844,6.14063 83.6719,5.79688 C83.3802,5.45313 82.8854,5.28125 82.1875,5.28125 C81.8438,5.28125 81.4948,5.34375 81.1406,5.46875 C80.9115,5.55208 80.6094,5.71875 80.2344,5.96875 L80.2344,5.4375 C80.5573,5.23958 80.8594,5.09896 81.1406,5.01563 C81.5365,4.90104 81.9167,4.84375 82.2813,4.84375 C83,4.84375 83.5885,5.05729 84.0469,5.48438 C84.4427,5.84896 84.6406,6.54167 84.6406,7.5625 M91.125,7.92188 C91.125,7.08854 90.9557,6.44271 90.6172,5.98438 C90.2786,5.52604 89.8021,5.29688 89.1875,5.29688 C88.5833,5.29688 88.112,5.52604 87.7734,5.98438 C87.4349,6.44271 87.2656,7.08854 87.2656,7.92188 C87.2656,8.75521 87.4349,9.40104 87.7734,9.85938 C88.112,10.3177 88.5833,10.5469 89.1875,10.5469 C89.8021,10.5469 90.2786,10.3177 90.6172,9.85938 C90.9557,9.40104 91.125,8.75521 91.125,7.92188 M91.6094,10.25 C91.6094,11.5 91.3724,12.3177 90.8984,12.7031 C90.4245,13.0885 89.8229,13.2813 89.0938,13.2813 C88.7396,13.2813 88.4115,13.2604 88.1094,13.2188 C87.7969,13.1563 87.4948,13.0729 87.2031,12.9688 L87.2031,12.4063 C87.4948,12.5625 87.7813,12.6797 88.0625,12.7578 C88.3438,12.8359 88.6354,12.875 88.9375,12.875 C89.5313,12.875 90.0443,12.7474 90.4766,12.4922 C90.9089,12.237 91.125,11.5521 91.125,10.4375 L91.125,9.48438 C90.9688,9.90104 90.7656,10.2292 90.5156,10.4688 C90.1198,10.8229 89.6771,11 89.1875,11 C88.4271,11 87.8333,10.7318 87.4063,10.1953 C86.9792,9.65885 86.7656,8.90104 86.7656,7.92188 C86.7656,6.94271 86.9792,6.1849 87.4063,5.64844 C87.8333,5.11198 88.4271,4.84375 89.1875,4.84375 C89.6771,4.84375 90.0938,4.99479 90.4375,5.29688 C90.7083,5.53646 90.9375,5.85938 91.125,6.26563 L91.125,4.98438 L91.6094,4.98438 L91.6094,10.25 M98.4063,7.75 L98.4063,8.0625 L93.8438,8.0625 C93.8438,9.02083 94.0313,9.69792 94.4063,10.0938 C94.8229,10.5208 95.4375,10.7344 96.25,10.7344 C96.4688,10.7344 96.7552,10.6875 97.1094,10.5938 C97.4635,10.5 97.8177,10.3594 98.1719,10.1719 L98.1719,10.6875 C97.8177,10.8438 97.4557,10.9609 97.0859,11.0391 C96.7161,11.1172 96.4219,11.1563 96.2031,11.1563 C95.276,11.1563 94.5781,10.9063 94.1094,10.4063 C93.599,9.875 93.3438,9.09375 93.3438,8.0625 C93.3438,6.98958 93.5729,6.1875 94.0313,5.65625 C94.5104,5.11458 95.1771,4.84375 96.0313,4.84375 C96.8125,4.84375 97.4063,5.10417 97.8125,5.625 C98.2083,6.16667 98.4063,6.875 98.4063,7.75 M97.9063,7.64063 C97.9063,6.79688 97.7135,6.18229 97.3281,5.79688 C97.0156,5.45313 96.5833,5.28125 96.0313,5.28125 C95.4375,5.28125 94.9375,5.45833 94.5313,5.8125 C94.1563,6.14583 93.9323,6.75521 93.8594,7.64063 L97.9063,7.64063"/>
</g>

<g fill="none" stroke="#000000" stroke-opacity="1" stroke-width="1" stroke-linecap="square" stroke-linejoin="bevel" transform="matrix(2,0,0,2,770.146,176)"
font-family="sans" font-size="11" font-weight="100" font-style="normal" 
>
</g>

<g fill="none" stroke="#000000" stroke-opacity="1" stroke-width="1" stroke-linecap="square" stroke-linejoin="bevel" transform="matrix(2,0,0,2,770.146,176)"
font-family="Ubuntu" font-size="11" font-weight="400" font-style="normal" 
>
</g>

<g fill="none" stroke="#000000" stroke-opacity="1" stroke-width="1" stroke-linecap="square" stroke-linejoin="bevel" transform="matrix(2,0,0,2,1.42109e-14,234)"
font-family="Ubuntu" font-size="11" font-weight="400" font-style="normal" 
>
</g>

<g fill="none" stroke="#000000" stroke-opacity="1" stroke-width="1" stroke-linecap="square" stroke-linejoin="bevel" transform="matrix(2,0,0,2,1.42109e-14,234)"
font-family="Ubuntu" font-size="11" font-weight="400" font-style="normal" 
>
</g>

<g fill="none" stroke="#000000" stroke-opacity="1" stroke-width="1" stroke-linecap="square" stroke-linejoin="bevel" transform="matrix(2,0,0,2,1.42109e-14,234)"
font-family="Ubuntu" font-size="11" font-weight="400" font-style="normal" 
>
</g>

<g fill="none" stroke="#000000" stroke-opacity="1" stroke-width="1" stroke-linecap="square" stroke-linejoin="round" transform="matrix(2,0,0,2,1.42109e-14,234)"
font-family="Ubuntu" font-size="11" font-weight="400" font-style="normal" 
>
<ellipse cx="579.34" cy="-45" rx="58.6444" ry="17.5"/>
</g>

<g fill="none" stroke="#000000" stroke-opacity="1" stroke-width="1" stroke-linecap="square" stroke-linejoin="bevel" transform="matrix(2,0,0,2,1.42109e-14,234)"
font-family="Ubuntu" font-size="11" font-weight="400" font-style="normal" 
>
</g>

<g fill="none" stroke="#000000" stroke-opacity="1" stroke-width="1" stroke-linecap="square" stroke-linejoin="bevel" transform="matrix(2,0,0,2,1102.32,130)"
font-family="Ubuntu" font-size="11" font-weight="400" font-style="normal" 
>
</g>

<g fill="none" stroke="#000000" stroke-opacity="1" stroke-width="1" stroke-linecap="square" stroke-linejoin="bevel" transform="matrix(2,0,0,2,1102.32,130)"
font-family="sans" font-size="11" font-weight="100" font-style="normal" 
>
</g>

<g fill="#000000" fill-opacity="1" stroke="#000000" stroke-opacity="1" stroke-width="1" stroke-linecap="square" stroke-linejoin="round" transform="matrix(2,0,0,2,1102.32,130)"
font-family="sans" font-size="11" font-weight="100" font-style="normal" 
>
<path vector-effect="none" fill-rule="nonzero" d="M2.96875,2.98438 L3.53125,2.98438 L0.734375,12.0156 L0.171875,12.0156 L2.96875,2.98438 M9.0625,5.28125 L9.0625,5.79688 C8.77083,5.61979 8.52604,5.5 8.32813,5.4375 C7.99479,5.33333 7.67708,5.28125 7.375,5.28125 C6.51042,5.28125 5.89063,5.5026 5.51563,5.94531 C5.14063,6.38802 4.95313,7.07292 4.95313,8 C4.95313,8.9375 5.14063,9.6276 5.51563,10.0703 C5.89063,10.513 6.51042,10.7344 7.375,10.7344 C7.66667,10.7344 7.94792,10.6927 8.21875,10.6094 C8.51042,10.5365 8.79167,10.4219 9.0625,10.2656 L9.0625,10.7656 C8.79167,10.901 8.51042,11 8.21875,11.0625 C7.91667,11.125 7.61979,11.1563 7.32813,11.1563 C6.45313,11.1563 5.75521,10.9167 5.23438,10.4375 C4.71354,9.95833 4.45313,9.14323 4.45313,7.99219 C4.45313,6.84115 4.71354,6.02604 5.23438,5.54688 C5.75521,5.07813 6.45313,4.84375 7.32813,4.84375 C7.61979,4.84375 7.92708,4.88542 8.25,4.96875 C8.57292,5.04167 8.84375,5.14583 9.0625,5.28125 M14.5781,6.01563 C14.224,5.52604 13.7396,5.28125 13.125,5.28125 C12.5104,5.28125 12.026,5.52604 11.6719,6.01563 C11.3177,6.49479 11.1406,7.15104 11.1406,7.98438 C11.1406,8.83854 11.3177,9.51042 11.6719,10 C12.026,10.4896 12.5104,10.7344 13.125,10.7344 C13.7396,10.7344 14.224,10.4896 14.5781,10 C14.9323,9.5 15.1094,8.82813 15.1094,7.98438 C15.1094,7.16146 14.9323,6.50521 14.5781,6.01563 M13.125,4.84375 C13.8854,4.84375 14.4896,5.13021 14.9375,5.70313 C15.3854,6.27604 15.6094,7.03646 15.6094,7.98438 C15.6094,8.97396 15.3854,9.75521 14.9375,10.3281 C14.4896,10.901 13.8854,11.1875 13.125,11.1875 C12.3438,11.1875 11.7292,10.901 11.2813,10.3281 C10.8438,9.75521 10.625,8.97396 10.625,7.98438 C10.625,7.02604 10.849,6.26302 11.2969,5.69531 C11.7448,5.1276 12.3542,4.84375 13.125,4.84375 M22.2656,7.375 L22.2656,11 L21.7656,11 L21.7656,7.40625 C21.7656,6.625 21.6406,6.07552 21.3906,5.75781 C21.1406,5.4401 20.7708,5.28125 20.2813,5.28125 C19.7083,5.28125 19.224,5.45313 18.8281,5.79688 C18.4115,6.14063 18.2031,6.73958 18.2031,7.59375 L18.2031,11 L17.7188,11 L17.7188,4.98438 L18.2031,4.98438 L18.2031,6.10938 C18.3802,5.74479 18.6146,5.46875 18.9063,5.28125 C19.3229,4.98958 19.7865,4.84375 20.2969,4.84375 C20.901,4.84375 21.3802,5.04688 21.7344,5.45313 C22.0885,5.84896 22.2656,6.48958 22.2656,7.375 M25.2031,3.28125 L25.2031,4.98438 L27.2344,4.98438 L27.2344,5.40625 L25.2031,5.40625 L25.2031,9.01563 C25.2031,9.47396 25.2604,9.79688 25.375,9.98438 C25.625,10.3802 25.9844,10.5781 26.4531,10.5781 L27.2344,10.5781 L27.2344,11 L26.4688,11 C25.9792,11 25.5625,10.8568 25.2188,10.5703 C24.875,10.2839 24.7031,9.76563 24.7031,9.01563 L24.7031,5.40625 L23.9844,5.40625 L23.9844,4.98438 L24.7031,4.98438 L24.7031,3.28125 L25.2031,3.28125 M32.2656,5.40625 C32.1823,5.36458 32.0729,5.33333 31.9375,5.3125 C31.8125,5.29167 31.6615,5.28125 31.4844,5.28125 C30.8698,5.28125 30.3646,5.50521 29.9688,5.95313 C29.6458,6.31771 29.4844,6.94271 29.4844,7.82813 L29.4844,11 L29,11 L29,4.98438 L29.4844,4.98438 L29.4844,6.10938 C29.651,5.78646 29.8802,5.51563 30.1719,5.29688 C30.5677,4.99479 31.0365,4.84375 31.5781,4.84375 C31.724,4.84375 31.849,4.84896 31.9531,4.85938 C32.0573,4.85938 32.1615,4.86979 32.2656,4.89063 L32.2656,5.40625 M37.0938,6.01563 C36.7396,5.52604 36.2552,5.28125 35.6406,5.28125 C35.026,5.28125 34.5417,5.52604 34.1875,6.01563 C33.8333,6.49479 33.6563,7.15104 33.6563,7.98438 C33.6563,8.83854 33.8333,9.51042 34.1875,10 C34.5417,10.4896 35.026,10.7344 35.6406,10.7344 C36.2552,10.7344 36.7396,10.4896 37.0938,10 C37.4479,9.5 37.625,8.82813 37.625,7.98438 C37.625,7.16146 37.4479,6.50521 37.0938,6.01563 M35.6406,4.84375 C36.401,4.84375 37.0052,5.13021 37.4531,5.70313 C37.901,6.27604 38.125,7.03646 38.125,7.98438 C38.125,8.97396 37.901,9.75521 37.4531,10.3281 C37.0052,10.901 36.401,11.1875 35.6406,11.1875 C34.8594,11.1875 34.2448,10.901 33.7969,10.3281 C33.3594,9.75521 33.1406,8.97396 33.1406,7.98438 C33.1406,7.02604 33.3646,6.26302 33.8125,5.69531 C34.2604,5.1276 34.8698,4.84375 35.6406,4.84375 M40.2344,2.64063 L40.7188,2.64063 L40.7188,11 L40.2344,11 L40.2344,2.64063 M43.2813,2.64063 L43.7656,2.64063 L43.7656,11 L43.2813,11 L43.2813,2.64063 M51.0156,7.75 L51.0156,8.0625 L46.4531,8.0625 C46.4531,9.02083 46.6406,9.69792 47.0156,10.0938 C47.4323,10.5208 48.0469,10.7344 48.8594,10.7344 C49.0781,10.7344 49.3646,10.6875 49.7188,10.5938 C50.0729,10.5 50.4271,10.3594 50.7813,10.1719 L50.7813,10.6875 C50.4271,10.8438 50.0651,10.9609 49.6953,11.0391 C49.3255,11.1172 49.0313,11.1563 48.8125,11.1563 C47.8854,11.1563 47.1875,10.9063 46.7188,10.4063 C46.2083,9.875 45.9531,9.09375 45.9531,8.0625 C45.9531,6.98958 46.1823,6.1875 46.6406,5.65625 C47.1198,5.11458 47.7865,4.84375 48.6406,4.84375 C49.4219,4.84375 50.0156,5.10417 50.4219,5.625 C50.8177,6.16667 51.0156,6.875 51.0156,7.75 M50.5156,7.64063 C50.5156,6.79688 50.3229,6.18229 49.9375,5.79688 C49.625,5.45313 49.1927,5.28125 48.6406,5.28125 C48.0469,5.28125 47.5469,5.45833 47.1406,5.8125 C46.7656,6.14583 46.5417,6.75521 46.4688,7.64063 L50.5156,7.64063 M56.3594,5.40625 C56.276,5.36458 56.1667,5.33333 56.0313,5.3125 C55.9063,5.29167 55.7552,5.28125 55.5781,5.28125 C54.9635,5.28125 54.4583,5.50521 54.0625,5.95313 C53.7396,6.31771 53.5781,6.94271 53.5781,7.82813 L53.5781,11 L53.0938,11 L53.0938,4.98438 L53.5781,4.98438 L53.5781,6.10938 C53.7448,5.78646 53.974,5.51563 54.2656,5.29688 C54.6615,4.99479 55.1302,4.84375 55.6719,4.84375 C55.8177,4.84375 55.9427,4.84896 56.0469,4.85938 C56.151,4.85938 56.2552,4.86979 56.3594,4.89063 L56.3594,5.40625"/>
</g>

<g fill="none" stroke="#000000" stroke-opacity="1" stroke-width="1" stroke-linecap="square" stroke-linejoin="bevel" transform="matrix(2,0,0,2,1102.32,130)"
font-family="sans" font-size="11" font-weight="100" font-style="normal" 
>
</g>

<g fill="none" stroke="#000000" stroke-opacity="1" stroke-width="1" stroke-linecap="square" stroke-linejoin="bevel" transform="matrix(2,0,0,2,1102.32,130)"
font-family="Ubuntu" font-size="11" font-weight="400" font-style="normal" 
>
</g>

<g fill="none" stroke="#000000" stroke-opacity="1" stroke-width="1" stroke-linecap="square" stroke-linejoin="bevel" transform="matrix(2,0,0,2,1.42109e-14,234)"
font-family="Ubuntu" font-size="11" font-weight="400" font-style="normal" 
>
</g>

<g fill="none" stroke="#000000" stroke-opacity="1" stroke-width="1" stroke-linecap="square" stroke-linejoin="bevel" transform="matrix(2,0,0,2,1.42109e-14,234)"
font-family="Ubuntu" font-size="11" font-weight="400" font-style="normal" 
>
</g>

<g fill="none" stroke="#000000" stroke-opacity="1" stroke-width="1" stroke-linecap="square" stroke-linejoin="bevel" transform="matrix(2,0,0,2,1.42109e-14,234)"
font-family="Ubuntu" font-size="11" font-weight="400" font-style="normal" 
>
</g>

<g fill="none" stroke="#000000" stroke-opacity="1" stroke-width="1" stroke-linecap="square" stroke-linejoin="round" transform="matrix(2,0,0,2,1.42109e-14,234)"
font-family="Ubuntu" font-size="11" font-weight="400" font-style="normal" 
>
<rect x="222.69" y="-89.5" width="126.001" height="35"/>
</g>

<g fill="none" stroke="#000000" stroke-opacity="1" stroke-width="1" stroke-linecap="square" stroke-linejoin="bevel" transform="matrix(2,0,0,2,1.42109e-14,234)"
font-family="Ubuntu" font-size="11" font-weight="400" font-style="normal" 
>
</g>

<g fill="none" stroke="#000000" stroke-opacity="1" stroke-width="1" stroke-linecap="square" stroke-linejoin="bevel" transform="matrix(2,0,0,2,485.442,76)"
font-family="Ubuntu" font-size="11" font-weight="400" font-style="normal" 
>
</g>

<g fill="none" stroke="#000000" stroke-opacity="1" stroke-width="1" stroke-linecap="square" stroke-linejoin="bevel" transform="matrix(2,0,0,2,485.442,76)"
font-family="sans" font-size="11" font-weight="100" font-style="normal" 
>
</g>

<g fill="#000000" fill-opacity="1" stroke="#000000" stroke-opacity="1" stroke-width="1" stroke-linecap="square" stroke-linejoin="round" transform="matrix(2,0,0,2,485.442,76)"
font-family="sans" font-size="11" font-weight="100" font-style="normal" 
>
<path vector-effect="none" fill-rule="nonzero" d="M2.96875,2.98438 L3.53125,2.98438 L0.734375,12.0156 L0.171875,12.0156 L2.96875,2.98438 M4.9375,4.98438 L5.4375,4.98438 L5.4375,11 L4.9375,11 L4.9375,4.98438 M4.9375,2.64063 L5.4375,2.64063 L5.4375,3.3125 L4.9375,3.3125 L4.9375,2.64063 M12.3281,6.29688 C12.5156,5.80729 12.8073,5.44271 13.2031,5.20313 C13.5885,4.96354 14.0417,4.84375 14.5625,4.84375 C15.0833,4.84375 15.5,5.02604 15.8125,5.39063 C16.1354,5.75521 16.2969,6.41667 16.2969,7.375 L16.2969,11 L15.8125,11 L15.8125,7.40625 C15.8125,6.57292 15.6979,6.01042 15.4688,5.71875 C15.2396,5.42708 14.9323,5.28125 14.5469,5.28125 C13.9948,5.28125 13.5104,5.44792 13.0938,5.78125 C12.625,6.15625 12.3906,6.76042 12.3906,7.59375 L12.3906,11 L11.9063,11 L11.9063,7.40625 C11.9063,6.60417 11.7943,6.04948 11.5703,5.74219 C11.3464,5.4349 11.0365,5.28125 10.6406,5.28125 C10.0885,5.28125 9.60417,5.45313 9.1875,5.79688 C8.71875,6.16146 8.48438,6.76042 8.48438,7.59375 L8.48438,11 L8,11 L8,4.98438 L8.48438,4.98438 L8.48438,6.10938 C8.66146,5.71354 8.9375,5.40104 9.3125,5.17188 C9.67708,4.95313 10.1302,4.84375 10.6719,4.84375 C11.026,4.84375 11.3646,4.95833 11.6875,5.1875 C11.9375,5.375 12.151,5.74479 12.3281,6.29688 M21.1094,7.60938 C20.3073,7.60938 19.7318,7.75 19.3828,8.03125 C19.0339,8.3125 18.8594,8.72396 18.8594,9.26563 C18.8594,9.79688 19.0052,10.1745 19.2969,10.3984 C19.5885,10.6224 19.9323,10.7344 20.3281,10.7344 C21.0781,10.7344 21.6198,10.4167 21.9531,9.78125 C22.2865,9.13542 22.4531,8.53125 22.4531,7.96875 L22.4531,7.60938 L21.1094,7.60938 M22.9531,7.5625 L22.9531,11 L22.4531,11 L22.4531,9.35938 C22.1823,10.1615 21.8177,10.6719 21.3594,10.8906 C21.0052,11.0677 20.6458,11.1563 20.2813,11.1563 C19.6875,11.1563 19.2188,10.9948 18.875,10.6719 C18.5313,10.349 18.3594,9.8776 18.3594,9.25781 C18.3594,8.63802 18.5833,8.14063 19.0313,7.76563 C19.4792,7.39063 20.2083,7.20313 21.2188,7.20313 L22.4531,7.20313 L22.4531,7.10938 C22.4531,6.57813 22.2969,6.14063 21.9844,5.79688 C21.6927,5.45313 21.1979,5.28125 20.5,5.28125 C20.1563,5.28125 19.8073,5.34375 19.4531,5.46875 C19.224,5.55208 18.9219,5.71875 18.5469,5.96875 L18.5469,5.4375 C18.8698,5.23958 19.1719,5.09896 19.4531,5.01563 C19.849,4.90104 20.2292,4.84375 20.5938,4.84375 C21.3125,4.84375 21.901,5.05729 22.3594,5.48438 C22.7552,5.84896 22.9531,6.54167 22.9531,7.5625 M29.4375,7.92188 C29.4375,7.08854 29.2682,6.44271 28.9297,5.98438 C28.5911,5.52604 28.1146,5.29688 27.5,5.29688 C26.8958,5.29688 26.4245,5.52604 26.0859,5.98438 C25.7474,6.44271 25.5781,7.08854 25.5781,7.92188 C25.5781,8.75521 25.7474,9.40104 26.0859,9.85938 C26.4245,10.3177 26.8958,10.5469 27.5,10.5469 C28.1146,10.5469 28.5911,10.3177 28.9297,9.85938 C29.2682,9.40104 29.4375,8.75521 29.4375,7.92188 M29.9219,10.25 C29.9219,11.5 29.6849,12.3177 29.2109,12.7031 C28.737,13.0885 28.1354,13.2813 27.4063,13.2813 C27.0521,13.2813 26.724,13.2604 26.4219,13.2188 C26.1094,13.1563 25.8073,13.0729 25.5156,12.9688 L25.5156,12.4063 C25.8073,12.5625 26.0938,12.6797 26.375,12.7578 C26.6563,12.8359 26.9479,12.875 27.25,12.875 C27.8438,12.875 28.3568,12.7474 28.7891,12.4922 C29.2214,12.237 29.4375,11.5521 29.4375,10.4375 L29.4375,9.48438 C29.2813,9.90104 29.0781,10.2292 28.8281,10.4688 C28.4323,10.8229 27.9896,11 27.5,11 C26.7396,11 26.1458,10.7318 25.7188,10.1953 C25.2917,9.65885 25.0781,8.90104 25.0781,7.92188 C25.0781,6.94271 25.2917,6.1849 25.7188,5.64844 C26.1458,5.11198 26.7396,4.84375 27.5,4.84375 C27.9896,4.84375 28.4063,4.99479 28.75,5.29688 C29.0208,5.53646 29.25,5.85938 29.4375,6.26563 L29.4375,4.98438 L29.9219,4.98438 L29.9219,10.25 M36.7188,7.75 L36.7188,8.0625 L32.1563,8.0625 C32.1563,9.02083 32.3438,9.69792 32.7188,10.0938 C33.1354,10.5208 33.75,10.7344 34.5625,10.7344 C34.7813,10.7344 35.0677,10.6875 35.4219,10.5938 C35.776,10.5 36.1302,10.3594 36.4844,10.1719 L36.4844,10.6875 C36.1302,10.8438 35.7682,10.9609 35.3984,11.0391 C35.0286,11.1172 34.7344,11.1563 34.5156,11.1563 C33.5885,11.1563 32.8906,10.9063 32.4219,10.4063 C31.9115,9.875 31.6563,9.09375 31.6563,8.0625 C31.6563,6.98958 31.8854,6.1875 32.3438,5.65625 C32.8229,5.11458 33.4896,4.84375 34.3438,4.84375 C35.125,4.84375 35.7188,5.10417 36.125,5.625 C36.5208,6.16667 36.7188,6.875 36.7188,7.75 M36.2188,7.64063 C36.2188,6.79688 36.026,6.18229 35.6406,5.79688 C35.3281,5.45313 34.8958,5.28125 34.3438,5.28125 C33.75,5.28125 33.25,5.45833 32.8438,5.8125 C32.4688,6.14583 32.2448,6.75521 32.1719,7.64063 L36.2188,7.64063 M43.1563,13.1719 L43.1563,13.5938 L37.4375,13.5938 L37.4375,13.1719 L43.1563,13.1719 M48.8438,7.375 L48.8438,11 L48.3438,11 L48.3438,7.40625 C48.3438,6.625 48.2188,6.07552 47.9688,5.75781 C47.7188,5.4401 47.349,5.28125 46.8594,5.28125 C46.2865,5.28125 45.8021,5.45313 45.4063,5.79688 C44.9896,6.14063 44.7813,6.73958 44.7813,7.59375 L44.7813,11 L44.2969,11 L44.2969,4.98438 L44.7813,4.98438 L44.7813,6.10938 C44.9583,5.74479 45.1927,5.46875 45.4844,5.28125 C45.901,4.98958 46.3646,4.84375 46.875,4.84375 C47.4792,4.84375 47.9583,5.04688 48.3125,5.45313 C48.6667,5.84896 48.8438,6.48958 48.8438,7.375 M51.2031,8.60938 L51.2031,4.98438 L51.6875,4.98438 L51.6875,8.57813 C51.6875,9.35938 51.8125,9.90885 52.0625,10.2266 C52.3125,10.5443 52.6823,10.7031 53.1719,10.7031 C53.7448,10.7031 54.2344,10.5313 54.6406,10.1875 C55.0469,9.84375 55.25,9.24479 55.25,8.39063 L55.25,4.98438 L55.7344,4.98438 L55.7344,11 L55.25,11 L55.25,9.875 C55.0729,10.2396 54.8385,10.5156 54.5469,10.7031 C54.1302,10.9948 53.6667,11.1406 53.1563,11.1406 C52.5625,11.1406 52.0885,10.9375 51.7344,10.5313 C51.3802,10.1354 51.2031,9.49479 51.2031,8.60938 M62.5625,6.29688 C62.75,5.80729 63.0417,5.44271 63.4375,5.20313 C63.8229,4.96354 64.276,4.84375 64.7969,4.84375 C65.3177,4.84375 65.7344,5.02604 66.0469,5.39063 C66.3698,5.75521 66.5313,6.41667 66.5313,7.375 L66.5313,11 L66.0469,11 L66.0469,7.40625 C66.0469,6.57292 65.9323,6.01042 65.7031,5.71875 C65.474,5.42708 65.1667,5.28125 64.7813,5.28125 C64.2292,5.28125 63.7448,5.44792 63.3281,5.78125 C62.8594,6.15625 62.625,6.76042 62.625,7.59375 L62.625,11 L62.1406,11 L62.1406,7.40625 C62.1406,6.60417 62.0286,6.04948 61.8047,5.74219 C61.5807,5.4349 61.2708,5.28125 60.875,5.28125 C60.3229,5.28125 59.8385,5.45313 59.4219,5.79688 C58.9531,6.16146 58.7188,6.76042 58.7188,7.59375 L58.7188,11 L58.2344,11 L58.2344,4.98438 L58.7188,4.98438 L58.7188,6.10938 C58.8958,5.71354 59.1719,5.40104 59.5469,5.17188 C59.9115,4.95313 60.3646,4.84375 60.9063,4.84375 C61.2604,4.84375 61.599,4.95833 61.9219,5.1875 C62.1719,5.375 62.3854,5.74479 62.5625,6.29688 M72.6563,10.0938 C73.0729,9.67708 73.2813,8.97917 73.2813,8 C73.2813,7.02083 73.0729,6.32292 72.6563,5.90625 C72.2396,5.48958 71.8021,5.28125 71.3438,5.28125 C70.8958,5.28125 70.4635,5.48958 70.0469,5.90625 C69.6406,6.32292 69.4375,7.02083 69.4375,8 C69.4375,8.97917 69.6406,9.67708 70.0469,10.0938 C70.4635,10.5104 70.8958,10.7188 71.3438,10.7188 C71.8021,10.7188 72.2396,10.5104 72.6563,10.0938 M69.4219,6.35938 C69.651,5.83854 69.8958,5.47917 70.1563,5.28125 C70.5625,4.98958 70.9479,4.84375 71.3125,4.84375 C72.0208,4.84375 72.612,5.13281 73.0859,5.71094 C73.5599,6.28906 73.7969,7.05208 73.7969,8 C73.7969,8.94792 73.5599,9.71094 73.0859,10.2891 C72.612,10.8672 72.0208,11.1563 71.3125,11.1563 C70.9479,11.1563 70.5625,11.0052 70.1563,10.7031 C69.8958,10.5156 69.651,10.1615 69.4219,9.64063 L69.4219,11 L68.9375,11 L68.9375,2.64063 L69.4219,2.64063 L69.4219,6.35938 M80.5938,7.75 L80.5938,8.0625 L76.0313,8.0625 C76.0313,9.02083 76.2188,9.69792 76.5938,10.0938 C77.0104,10.5208 77.625,10.7344 78.4375,10.7344 C78.6563,10.7344 78.9427,10.6875 79.2969,10.5938 C79.651,10.5 80.0052,10.3594 80.3594,10.1719 L80.3594,10.6875 C80.0052,10.8438 79.6432,10.9609 79.2734,11.0391 C78.9036,11.1172 78.6094,11.1563 78.3906,11.1563 C77.4635,11.1563 76.7656,10.9063 76.2969,10.4063 C75.7865,9.875 75.5313,9.09375 75.5313,8.0625 C75.5313,6.98958 75.7604,6.1875 76.2188,5.65625 C76.6979,5.11458 77.3646,4.84375 78.2188,4.84375 C79,4.84375 79.5938,5.10417 80,5.625 C80.3958,6.16667 80.5938,6.875 80.5938,7.75 M80.0938,7.64063 C80.0938,6.79688 79.901,6.18229 79.5156,5.79688 C79.2031,5.45313 78.7708,5.28125 78.2188,5.28125 C77.625,5.28125 77.125,5.45833 76.7188,5.8125 C76.3438,6.14583 76.1198,6.75521 76.0469,7.64063 L80.0938,7.64063 M85.9375,5.40625 C85.8542,5.36458 85.7448,5.33333 85.6094,5.3125 C85.4844,5.29167 85.3333,5.28125 85.1563,5.28125 C84.5417,5.28125 84.0365,5.50521 83.6406,5.95313 C83.3177,6.31771 83.1563,6.94271 83.1563,7.82813 L83.1563,11 L82.6719,11 L82.6719,4.98438 L83.1563,4.98438 L83.1563,6.10938 C83.3229,5.78646 83.5521,5.51563 83.8438,5.29688 C84.2396,4.99479 84.7083,4.84375 85.25,4.84375 C85.3958,4.84375 85.5208,4.84896 85.625,4.85938 C85.7292,4.85938 85.8333,4.86979 85.9375,4.89063 L85.9375,5.40625"/>
</g>

<g fill="none" stroke="#000000" stroke-opacity="1" stroke-width="1" stroke-linecap="square" stroke-linejoin="bevel" transform="matrix(2,0,0,2,485.442,76)"
font-family="sans" font-size="11" font-weight="100" font-style="normal" 
>
</g>

<g fill="none" stroke="#000000" stroke-opacity="1" stroke-width="1" stroke-linecap="square" stroke-linejoin="bevel" transform="matrix(2,0,0,2,485.442,76)"
font-family="Ubuntu" font-size="11" font-weight="400" font-style="normal" 
>
</g>

<g fill="none" stroke="#000000" stroke-opacity="1" stroke-width="1" stroke-linecap="square" stroke-linejoin="bevel" transform="matrix(2,0,0,2,1.42109e-14,234)"
font-family="Ubuntu" font-size="11" font-weight="400" font-style="normal" 
>
</g>

<g fill="none" stroke="#000000" stroke-opacity="1" stroke-width="1" stroke-linecap="square" stroke-linejoin="bevel" transform="matrix(2,0,0,2,1.42109e-14,234)"
font-family="Ubuntu" font-size="11" font-weight="400" font-style="normal" 
>
</g>

<g fill="none" stroke="#000000" stroke-opacity="1" stroke-width="1" stroke-linecap="square" stroke-linejoin="bevel" transform="matrix(2,0,0,2,1.42109e-14,234)"
font-family="Ubuntu" font-size="11" font-weight="400" font-style="normal" 
>
</g>

<g fill="none" stroke="#000000" stroke-opacity="1" stroke-width="1" stroke-linecap="square" stroke-linejoin="round" transform="matrix(2,0,0,2,1.42109e-14,234)"
font-family="Ubuntu" font-size="11" font-weight="400" font-style="normal" 
>
<rect x="110.69" y="-39.5" width="96.9992" height="35"/>
</g>

<g fill="none" stroke="#000000" stroke-opacity="1" stroke-width="1" stroke-linecap="square" stroke-linejoin="bevel" transform="matrix(2,0,0,2,1.42109e-14,234)"
font-family="Ubuntu" font-size="11" font-weight="400" font-style="normal" 
>
</g>

<g fill="none" stroke="#000000" stroke-opacity="1" stroke-width="1" stroke-linecap="square" stroke-linejoin="bevel" transform="matrix(2,0,0,2,255.099,176)"
font-family="Ubuntu" font-size="11" font-weight="400" font-style="normal" 
>
</g>

<g fill="none" stroke="#000000" stroke-opacity="1" stroke-width="1" stroke-linecap="square" stroke-linejoin="bevel" transform="matrix(2,0,0,2,255.099,176)"
font-family="sans" font-size="11" font-weight="100" font-style="normal" 
>
</g>

<g fill="#000000" fill-opacity="1" stroke="#000000" stroke-opacity="1" stroke-width="1" stroke-linecap="square" stroke-linejoin="round" transform="matrix(2,0,0,2,255.099,176)"
font-family="sans" font-size="11" font-weight="100" font-style="normal" 
>
<path vector-effect="none" fill-rule="nonzero" d="M2.96875,2.98438 L3.53125,2.98438 L0.734375,12.0156 L0.171875,12.0156 L2.96875,2.98438 M8.21875,5.40625 C8.13542,5.36458 8.02604,5.33333 7.89063,5.3125 C7.76563,5.29167 7.61458,5.28125 7.4375,5.28125 C6.82292,5.28125 6.31771,5.50521 5.92188,5.95313 C5.59896,6.31771 5.4375,6.94271 5.4375,7.82813 L5.4375,11 L4.95313,11 L4.95313,4.98438 L5.4375,4.98438 L5.4375,6.10938 C5.60417,5.78646 5.83333,5.51563 6.125,5.29688 C6.52083,4.99479 6.98958,4.84375 7.53125,4.84375 C7.67708,4.84375 7.80208,4.84896 7.90625,4.85938 C8.01042,4.85938 8.11458,4.86979 8.21875,4.89063 L8.21875,5.40625 M11.875,7.60938 C11.0729,7.60938 10.4974,7.75 10.1484,8.03125 C9.79948,8.3125 9.625,8.72396 9.625,9.26563 C9.625,9.79688 9.77083,10.1745 10.0625,10.3984 C10.3542,10.6224 10.6979,10.7344 11.0938,10.7344 C11.8438,10.7344 12.3854,10.4167 12.7188,9.78125 C13.0521,9.13542 13.2188,8.53125 13.2188,7.96875 L13.2188,7.60938 L11.875,7.60938 M13.7188,7.5625 L13.7188,11 L13.2188,11 L13.2188,9.35938 C12.9479,10.1615 12.5833,10.6719 12.125,10.8906 C11.7708,11.0677 11.4115,11.1563 11.0469,11.1563 C10.4531,11.1563 9.98438,10.9948 9.64063,10.6719 C9.29688,10.349 9.125,9.8776 9.125,9.25781 C9.125,8.63802 9.34896,8.14063 9.79688,7.76563 C10.2448,7.39063 10.974,7.20313 11.9844,7.20313 L13.2188,7.20313 L13.2188,7.10938 C13.2188,6.57813 13.0625,6.14063 12.75,5.79688 C12.4583,5.45313 11.9635,5.28125 11.2656,5.28125 C10.9219,5.28125 10.5729,5.34375 10.2188,5.46875 C9.98958,5.55208 9.6875,5.71875 9.3125,5.96875 L9.3125,5.4375 C9.63542,5.23958 9.9375,5.09896 10.2188,5.01563 C10.6146,4.90104 10.9948,4.84375 11.3594,4.84375 C12.0781,4.84375 12.6667,5.05729 13.125,5.48438 C13.5208,5.84896 13.7188,6.54167 13.7188,7.5625 M15.6563,4.98438 L16.1563,4.98438 L17.5781,10.3438 L18.9688,4.98438 L19.6094,4.98438 L21.0156,10.375 L22.4219,4.98438 L22.9375,4.98438 L21.3594,11 L20.6719,11 L19.2813,5.71875 L17.9063,11 L17.2344,11 L15.6563,4.98438 M29.5469,13.1719 L29.5469,13.5938 L23.8281,13.5938 L23.8281,13.1719 L29.5469,13.1719 M30.6719,4.98438 L31.1719,4.98438 L31.1719,11 L30.6719,11 L30.6719,4.98438 M30.6719,2.64063 L31.1719,2.64063 L31.1719,3.3125 L30.6719,3.3125 L30.6719,2.64063 M38.0625,6.29688 C38.25,5.80729 38.5417,5.44271 38.9375,5.20313 C39.3229,4.96354 39.776,4.84375 40.2969,4.84375 C40.8177,4.84375 41.2344,5.02604 41.5469,5.39063 C41.8698,5.75521 42.0313,6.41667 42.0313,7.375 L42.0313,11 L41.5469,11 L41.5469,7.40625 C41.5469,6.57292 41.4323,6.01042 41.2031,5.71875 C40.974,5.42708 40.6667,5.28125 40.2813,5.28125 C39.7292,5.28125 39.2448,5.44792 38.8281,5.78125 C38.3594,6.15625 38.125,6.76042 38.125,7.59375 L38.125,11 L37.6406,11 L37.6406,7.40625 C37.6406,6.60417 37.5286,6.04948 37.3047,5.74219 C37.0807,5.4349 36.7708,5.28125 36.375,5.28125 C35.8229,5.28125 35.3385,5.45313 34.9219,5.79688 C34.4531,6.16146 34.2188,6.76042 34.2188,7.59375 L34.2188,11 L33.7344,11 L33.7344,4.98438 L34.2188,4.98438 L34.2188,6.10938 C34.3958,5.71354 34.6719,5.40104 35.0469,5.17188 C35.4115,4.95313 35.8646,4.84375 36.4063,4.84375 C36.7604,4.84375 37.099,4.95833 37.4219,5.1875 C37.6719,5.375 37.8854,5.74479 38.0625,6.29688 M46.8438,7.60938 C46.0417,7.60938 45.4661,7.75 45.1172,8.03125 C44.7682,8.3125 44.5938,8.72396 44.5938,9.26563 C44.5938,9.79688 44.7396,10.1745 45.0313,10.3984 C45.3229,10.6224 45.6667,10.7344 46.0625,10.7344 C46.8125,10.7344 47.3542,10.4167 47.6875,9.78125 C48.0208,9.13542 48.1875,8.53125 48.1875,7.96875 L48.1875,7.60938 L46.8438,7.60938 M48.6875,7.5625 L48.6875,11 L48.1875,11 L48.1875,9.35938 C47.9167,10.1615 47.5521,10.6719 47.0938,10.8906 C46.7396,11.0677 46.3802,11.1563 46.0156,11.1563 C45.4219,11.1563 44.9531,10.9948 44.6094,10.6719 C44.2656,10.349 44.0938,9.8776 44.0938,9.25781 C44.0938,8.63802 44.3177,8.14063 44.7656,7.76563 C45.2135,7.39063 45.9427,7.20313 46.9531,7.20313 L48.1875,7.20313 L48.1875,7.10938 C48.1875,6.57813 48.0313,6.14063 47.7188,5.79688 C47.4271,5.45313 46.9323,5.28125 46.2344,5.28125 C45.8906,5.28125 45.5417,5.34375 45.1875,5.46875 C44.9583,5.55208 44.6563,5.71875 44.2813,5.96875 L44.2813,5.4375 C44.6042,5.23958 44.9063,5.09896 45.1875,5.01563 C45.5833,4.90104 45.9635,4.84375 46.3281,4.84375 C47.0469,4.84375 47.6354,5.05729 48.0938,5.48438 C48.4896,5.84896 48.6875,6.54167 48.6875,7.5625 M55.1719,7.92188 C55.1719,7.08854 55.0026,6.44271 54.6641,5.98438 C54.3255,5.52604 53.849,5.29688 53.2344,5.29688 C52.6302,5.29688 52.1589,5.52604 51.8203,5.98438 C51.4818,6.44271 51.3125,7.08854 51.3125,7.92188 C51.3125,8.75521 51.4818,9.40104 51.8203,9.85938 C52.1589,10.3177 52.6302,10.5469 53.2344,10.5469 C53.849,10.5469 54.3255,10.3177 54.6641,9.85938 C55.0026,9.40104 55.1719,8.75521 55.1719,7.92188 M55.6563,10.25 C55.6563,11.5 55.4193,12.3177 54.9453,12.7031 C54.4714,13.0885 53.8698,13.2813 53.1406,13.2813 C52.7865,13.2813 52.4583,13.2604 52.1563,13.2188 C51.8438,13.1563 51.5417,13.0729 51.25,12.9688 L51.25,12.4063 C51.5417,12.5625 51.8281,12.6797 52.1094,12.7578 C52.3906,12.8359 52.6823,12.875 52.9844,12.875 C53.5781,12.875 54.0911,12.7474 54.5234,12.4922 C54.9557,12.237 55.1719,11.5521 55.1719,10.4375 L55.1719,9.48438 C55.0156,9.90104 54.8125,10.2292 54.5625,10.4688 C54.1667,10.8229 53.724,11 53.2344,11 C52.474,11 51.8802,10.7318 51.4531,10.1953 C51.026,9.65885 50.8125,8.90104 50.8125,7.92188 C50.8125,6.94271 51.026,6.1849 51.4531,5.64844 C51.8802,5.11198 52.474,4.84375 53.2344,4.84375 C53.724,4.84375 54.1406,4.99479 54.4844,5.29688 C54.7552,5.53646 54.9844,5.85938 55.1719,6.26563 L55.1719,4.98438 L55.6563,4.98438 L55.6563,10.25 M62.4531,7.75 L62.4531,8.0625 L57.8906,8.0625 C57.8906,9.02083 58.0781,9.69792 58.4531,10.0938 C58.8698,10.5208 59.4844,10.7344 60.2969,10.7344 C60.5156,10.7344 60.8021,10.6875 61.1563,10.5938 C61.5104,10.5 61.8646,10.3594 62.2188,10.1719 L62.2188,10.6875 C61.8646,10.8438 61.5026,10.9609 61.1328,11.0391 C60.763,11.1172 60.4688,11.1563 60.25,11.1563 C59.3229,11.1563 58.625,10.9063 58.1563,10.4063 C57.6458,9.875 57.3906,9.09375 57.3906,8.0625 C57.3906,6.98958 57.6198,6.1875 58.0781,5.65625 C58.5573,5.11458 59.224,4.84375 60.0781,4.84375 C60.8594,4.84375 61.4531,5.10417 61.8594,5.625 C62.2552,6.16667 62.4531,6.875 62.4531,7.75 M61.9531,7.64063 C61.9531,6.79688 61.7604,6.18229 61.375,5.79688 C61.0625,5.45313 60.6302,5.28125 60.0781,5.28125 C59.4844,5.28125 58.9844,5.45833 58.5781,5.8125 C58.2031,6.14583 57.9792,6.75521 57.9063,7.64063 L61.9531,7.64063"/>
</g>

<g fill="none" stroke="#000000" stroke-opacity="1" stroke-width="1" stroke-linecap="square" stroke-linejoin="bevel" transform="matrix(2,0,0,2,255.099,176)"
font-family="sans" font-size="11" font-weight="100" font-style="normal" 
>
</g>

<g fill="none" stroke="#000000" stroke-opacity="1" stroke-width="1" stroke-linecap="square" stroke-linejoin="bevel" transform="matrix(2,0,0,2,255.099,176)"
font-family="Ubuntu" font-size="11" font-weight="400" font-style="normal" 
>
</g>

<g fill="none" stroke="#000000" stroke-opacity="1" stroke-width="1" stroke-linecap="square" stroke-linejoin="bevel" transform="matrix(2,0,0,2,1.42109e-14,234)"
font-family="Ubuntu" font-size="11" font-weight="400" font-style="normal" 
>
</g>

<g fill="none" stroke="#000000" stroke-opacity="1" stroke-width="1" stroke-linecap="square" stroke-linejoin="bevel" transform="matrix(2,0,0,2,1.42109e-14,234)"
font-family="Ubuntu" font-size="11" font-weight="400" font-style="normal" 
>
</g>

<g fill="none" stroke="#000000" stroke-opacity="1" stroke-width="1" stroke-linecap="square" stroke-linejoin="bevel" transform="matrix(2,0,0,2,1.42109e-14,234)"
font-family="Ubuntu" font-size="11" font-weight="400" font-style="normal" 
>
</g>

<g fill="none" stroke="#000000" stroke-opacity="1" stroke-width="1" stroke-linecap="square" stroke-linejoin="round" transform="matrix(2,0,0,2,1.42109e-14,234)"
font-family="Ubuntu" font-size="11" font-weight="400" font-style="normal" 
>
<ellipse cx="285.69" cy="-18" rx="58.6444" ry="17.5"/>
</g>

<g fill="none" stroke="#000000" stroke-opacity="1" stroke-width="1" stroke-linecap="square" stroke-linejoin="bevel" transform="matrix(2,0,0,2,1.42109e-14,234)"
font-family="Ubuntu" font-size="11" font-weight="400" font-style="normal" 
>
</g>

<g fill="none" stroke="#000000" stroke-opacity="1" stroke-width="1" stroke-linecap="square" stroke-linejoin="bevel" transform="matrix(2,0,0,2,513.989,184)"
font-family="Ubuntu" font-size="11" font-weight="400" font-style="normal" 
>
</g>

<g fill="none" stroke="#000000" stroke-opacity="1" stroke-width="1" stroke-linecap="square" stroke-linejoin="bevel" transform="matrix(2,0,0,2,513.989,184)"
font-family="sans" font-size="11" font-weight="100" font-style="normal" 
>
</g>

<g fill="#000000" fill-opacity="1" stroke="#000000" stroke-opacity="1" stroke-width="1" stroke-linecap="square" stroke-linejoin="round" transform="matrix(2,0,0,2,513.989,184)"
font-family="sans" font-size="11" font-weight="100" font-style="normal" 
>
<path vector-effect="none" fill-rule="nonzero" d="M2.96875,2.98438 L3.53125,2.98438 L0.734375,12.0156 L0.171875,12.0156 L2.96875,2.98438 M5.4375,9.64063 L5.4375,13.2813 L4.95313,13.2813 L4.95313,4.98438 L5.4375,4.98438 L5.4375,6.35938 C5.66667,5.83854 5.91146,5.47917 6.17188,5.28125 C6.57813,4.98958 6.96354,4.84375 7.32813,4.84375 C8.03646,4.84375 8.6276,5.13281 9.10156,5.71094 C9.57552,6.28906 9.8125,7.05208 9.8125,8 C9.8125,8.94792 9.57552,9.71094 9.10156,10.2891 C8.6276,10.8672 8.03646,11.1563 7.32813,11.1563 C6.96354,11.1563 6.57813,11.0052 6.17188,10.7031 C5.91146,10.5156 5.66667,10.1615 5.4375,9.64063 M8.67188,10.0938 C9.08854,9.67708 9.29688,8.97917 9.29688,8 C9.29688,7.02083 9.08854,6.32292 8.67188,5.90625 C8.25521,5.48958 7.81771,5.28125 7.35938,5.28125 C6.91146,5.28125 6.47917,5.48958 6.0625,5.90625 C5.65625,6.32292 5.45313,7.02083 5.45313,8 C5.45313,8.97917 5.65625,9.67708 6.0625,10.0938 C6.47917,10.5104 6.91146,10.7188 7.35938,10.7188 C7.81771,10.7188 8.25521,10.5104 8.67188,10.0938 M15.1875,5.40625 C15.1042,5.36458 14.9948,5.33333 14.8594,5.3125 C14.7344,5.29167 14.5833,5.28125 14.4063,5.28125 C13.7917,5.28125 13.2865,5.50521 12.8906,5.95313 C12.5677,6.31771 12.4063,6.94271 12.4063,7.82813 L12.4063,11 L11.9219,11 L11.9219,4.98438 L12.4063,4.98438 L12.4063,6.10938 C12.5729,5.78646 12.8021,5.51563 13.0938,5.29688 C13.4896,4.99479 13.9583,4.84375 14.5,4.84375 C14.6458,4.84375 14.7708,4.84896 14.875,4.85938 C14.9792,4.85938 15.0833,4.86979 15.1875,4.89063 L15.1875,5.40625 M20.0156,6.01563 C19.6615,5.52604 19.1771,5.28125 18.5625,5.28125 C17.9479,5.28125 17.4635,5.52604 17.1094,6.01563 C16.7552,6.49479 16.5781,7.15104 16.5781,7.98438 C16.5781,8.83854 16.7552,9.51042 17.1094,10 C17.4635,10.4896 17.9479,10.7344 18.5625,10.7344 C19.1771,10.7344 19.6615,10.4896 20.0156,10 C20.3698,9.5 20.5469,8.82813 20.5469,7.98438 C20.5469,7.16146 20.3698,6.50521 20.0156,6.01563 M18.5625,4.84375 C19.3229,4.84375 19.9271,5.13021 20.375,5.70313 C20.8229,6.27604 21.0469,7.03646 21.0469,7.98438 C21.0469,8.97396 20.8229,9.75521 20.375,10.3281 C19.9271,10.901 19.3229,11.1875 18.5625,11.1875 C17.7813,11.1875 17.1667,10.901 16.7188,10.3281 C16.2813,9.75521 16.0625,8.97396 16.0625,7.98438 C16.0625,7.02604 16.2865,6.26302 16.7344,5.69531 C17.1823,5.1276 17.7917,4.84375 18.5625,4.84375 M27.2656,5.28125 L27.2656,5.79688 C26.974,5.61979 26.7292,5.5 26.5313,5.4375 C26.1979,5.33333 25.8802,5.28125 25.5781,5.28125 C24.7135,5.28125 24.0938,5.5026 23.7188,5.94531 C23.3438,6.38802 23.1563,7.07292 23.1563,8 C23.1563,8.9375 23.3438,9.6276 23.7188,10.0703 C24.0938,10.513 24.7135,10.7344 25.5781,10.7344 C25.8698,10.7344 26.151,10.6927 26.4219,10.6094 C26.7135,10.5365 26.9948,10.4219 27.2656,10.2656 L27.2656,10.7656 C26.9948,10.901 26.7135,11 26.4219,11.0625 C26.1198,11.125 25.8229,11.1563 25.5313,11.1563 C24.6563,11.1563 23.9583,10.9167 23.4375,10.4375 C22.9167,9.95833 22.6563,9.14323 22.6563,7.99219 C22.6563,6.84115 22.9167,6.02604 23.4375,5.54688 C23.9583,5.07813 24.6563,4.84375 25.5313,4.84375 C25.8229,4.84375 26.1302,4.88542 26.4531,4.96875 C26.776,5.04167 27.0469,5.14583 27.2656,5.28125 M33.8906,7.75 L33.8906,8.0625 L29.3281,8.0625 C29.3281,9.02083 29.5156,9.69792 29.8906,10.0938 C30.3073,10.5208 30.9219,10.7344 31.7344,10.7344 C31.9531,10.7344 32.2396,10.6875 32.5938,10.5938 C32.9479,10.5 33.3021,10.3594 33.6563,10.1719 L33.6563,10.6875 C33.3021,10.8438 32.9401,10.9609 32.5703,11.0391 C32.2005,11.1172 31.9063,11.1563 31.6875,11.1563 C30.7604,11.1563 30.0625,10.9063 29.5938,10.4063 C29.0833,9.875 28.8281,9.09375 28.8281,8.0625 C28.8281,6.98958 29.0573,6.1875 29.5156,5.65625 C29.9948,5.11458 30.6615,4.84375 31.5156,4.84375 C32.2969,4.84375 32.8906,5.10417 33.2969,5.625 C33.6927,6.16667 33.8906,6.875 33.8906,7.75 M33.3906,7.64063 C33.3906,6.79688 33.1979,6.18229 32.8125,5.79688 C32.5,5.45313 32.0677,5.28125 31.5156,5.28125 C30.9219,5.28125 30.4219,5.45833 30.0156,5.8125 C29.6406,6.14583 29.4167,6.75521 29.3438,7.64063 L33.3906,7.64063 M39.375,5.15625 L39.375,5.70313 C39.0208,5.50521 38.8021,5.39583 38.7188,5.375 C38.4688,5.32292 38.1563,5.29167 37.7813,5.28125 C37.2188,5.28125 36.776,5.39063 36.4531,5.60938 C36.2031,5.79688 36.0781,6.11458 36.0781,6.5625 C36.0781,6.875 36.1979,7.11458 36.4375,7.28125 C36.6771,7.46875 37.026,7.61458 37.4844,7.71875 L37.8281,7.78125 C38.401,7.90625 38.8333,8.08333 39.125,8.3125 C39.4688,8.58333 39.6458,8.92708 39.6563,9.34375 C39.6563,9.90625 39.4896,10.349 39.1563,10.6719 C38.8021,10.9948 38.224,11.1563 37.4219,11.1563 C36.9844,11.1563 36.651,11.125 36.4219,11.0625 C36.1406,10.9896 35.849,10.8958 35.5469,10.7813 L35.5469,10.1563 C35.9844,10.4063 36.2656,10.5521 36.3906,10.5938 C36.7448,10.6875 37.099,10.7344 37.4531,10.7344 C38.026,10.7344 38.4531,10.6146 38.7344,10.375 C39.0156,10.125 39.1563,9.80729 39.1563,9.42188 C39.1563,9.08854 39.0625,8.84896 38.875,8.70313 C38.6042,8.48438 38.1771,8.30729 37.5938,8.17188 L37.25,8.09375 C36.7396,7.96875 36.3542,7.80208 36.0938,7.59375 C35.7604,7.32292 35.5938,6.99479 35.5938,6.60938 C35.5938,5.98438 35.7943,5.53385 36.1953,5.25781 C36.5964,4.98177 37.0885,4.84375 37.6719,4.84375 C38.1719,4.84375 38.5156,4.86979 38.7031,4.92188 C38.9323,4.98438 39.1563,5.0625 39.375,5.15625 M45.0938,5.15625 L45.0938,5.70313 C44.7396,5.50521 44.5208,5.39583 44.4375,5.375 C44.1875,5.32292 43.875,5.29167 43.5,5.28125 C42.9375,5.28125 42.4948,5.39063 42.1719,5.60938 C41.9219,5.79688 41.7969,6.11458 41.7969,6.5625 C41.7969,6.875 41.9167,7.11458 42.1563,7.28125 C42.3958,7.46875 42.7448,7.61458 43.2031,7.71875 L43.5469,7.78125 C44.1198,7.90625 44.5521,8.08333 44.8438,8.3125 C45.1875,8.58333 45.3646,8.92708 45.375,9.34375 C45.375,9.90625 45.2083,10.349 44.875,10.6719 C44.5208,10.9948 43.9427,11.1563 43.1406,11.1563 C42.7031,11.1563 42.3698,11.125 42.1406,11.0625 C41.8594,10.9896 41.5677,10.8958 41.2656,10.7813 L41.2656,10.1563 C41.7031,10.4063 41.9844,10.5521 42.1094,10.5938 C42.4635,10.6875 42.8177,10.7344 43.1719,10.7344 C43.7448,10.7344 44.1719,10.6146 44.4531,10.375 C44.7344,10.125 44.875,9.80729 44.875,9.42188 C44.875,9.08854 44.7813,8.84896 44.5938,8.70313 C44.3229,8.48438 43.8958,8.30729 43.3125,8.17188 L42.9688,8.09375 C42.4583,7.96875 42.0729,7.80208 41.8125,7.59375 C41.4792,7.32292 41.3125,6.99479 41.3125,6.60938 C41.3125,5.98438 41.513,5.53385 41.9141,5.25781 C42.3151,4.98177 42.8073,4.84375 43.3906,4.84375 C43.8906,4.84375 44.2344,4.86979 44.4219,4.92188 C44.651,4.98438 44.875,5.0625 45.0938,5.15625 M50.9844,6.01563 C50.6302,5.52604 50.1458,5.28125 49.5313,5.28125 C48.9167,5.28125 48.4323,5.52604 48.0781,6.01563 C47.724,6.49479 47.5469,7.15104 47.5469,7.98438 C47.5469,8.83854 47.724,9.51042 48.0781,10 C48.4323,10.4896 48.9167,10.7344 49.5313,10.7344 C50.1458,10.7344 50.6302,10.4896 50.9844,10 C51.3385,9.5 51.5156,8.82813 51.5156,7.98438 C51.5156,7.16146 51.3385,6.50521 50.9844,6.01563 M49.5313,4.84375 C50.2917,4.84375 50.8958,5.13021 51.3438,5.70313 C51.7917,6.27604 52.0156,7.03646 52.0156,7.98438 C52.0156,8.97396 51.7917,9.75521 51.3438,10.3281 C50.8958,10.901 50.2917,11.1875 49.5313,11.1875 C48.75,11.1875 48.1354,10.901 47.6875,10.3281 C47.25,9.75521 47.0313,8.97396 47.0313,7.98438 C47.0313,7.02604 47.2552,6.26302 47.7031,5.69531 C48.151,5.1276 48.7604,4.84375 49.5313,4.84375 M57.3906,5.40625 C57.3073,5.36458 57.1979,5.33333 57.0625,5.3125 C56.9375,5.29167 56.7865,5.28125 56.6094,5.28125 C55.9948,5.28125 55.4896,5.50521 55.0938,5.95313 C54.7708,6.31771 54.6094,6.94271 54.6094,7.82813 L54.6094,11 L54.125,11 L54.125,4.98438 L54.6094,4.98438 L54.6094,6.10938 C54.776,5.78646 55.0052,5.51563 55.2969,5.29688 C55.6927,4.99479 56.1615,4.84375 56.7031,4.84375 C56.849,4.84375 56.974,4.84896 57.0781,4.85938 C57.1823,4.85938 57.2865,4.86979 57.3906,4.89063 L57.3906,5.40625"/>
</g>

<g fill="none" stroke="#000000" stroke-opacity="1" stroke-width="1" stroke-linecap="square" stroke-linejoin="bevel" transform="matrix(2,0,0,2,513.989,184)"
font-family="sans" font-size="11" font-weight="100" font-style="normal" 
>
</g>

<g fill="none" stroke="#000000" stroke-opacity="1" stroke-width="1" stroke-linecap="square" stroke-linejoin="bevel" transform="matrix(2,0,0,2,513.989,184)"
font-family="Ubuntu" font-size="11" font-weight="400" font-style="normal" 
>
</g>

<g fill="none" stroke="#000000" stroke-opacity="1" stroke-width="1" stroke-linecap="square" stroke-linejoin="bevel" transform="matrix(2,0,0,2,1.42109e-14,234)"
font-family="Ubuntu" font-size="11" font-weight="400" font-style="normal" 
>
</g>

<g fill="none" stroke="#000000" stroke-opacity="1" stroke-width="1" stroke-linecap="square" stroke-linejoin="bevel" transform="matrix(2,0,0,2,1.42109e-14,234)"
font-family="Ubuntu" font-size="11" font-weight="400" font-style="normal" 
>
</g>

<g fill="none" stroke="#000000" stroke-opacity="1" stroke-width="1" stroke-linecap="square" stroke-linejoin="bevel" transform="matrix(2,0,0,2,1.42109e-14,234)"
font-family="Ubuntu" font-size="11" font-weight="400" font-style="normal" 
>
</g>

<g fill="none" stroke="#000000" stroke-opacity="1" stroke-width="1" stroke-linecap="square" stroke-linejoin="round" transform="matrix(2,0,0,2,1.42109e-14,234)"
font-family="Ubuntu" font-size="11" font-weight="400" font-style="normal" 
>
<ellipse cx="48.096" cy="-99" rx="26.5" ry="17.5"/>
</g>

<g fill="none" stroke="#000000" stroke-opacity="1" stroke-width="1" stroke-linecap="square" stroke-linejoin="bevel" transform="matrix(2,0,0,2,1.42109e-14,234)"
font-family="Ubuntu" font-size="11" font-weight="400" font-style="normal" 
>
</g>

<g fill="none" stroke="#000000" stroke-opacity="1" stroke-width="1" stroke-linecap="square" stroke-linejoin="bevel" transform="matrix(2,0,0,2,82.7076,22)"
font-family="Ubuntu" font-size="11" font-weight="400" font-style="normal" 
>
</g>

<g fill="none" stroke="#000000" stroke-opacity="1" stroke-width="1" stroke-linecap="square" stroke-linejoin="bevel" transform="matrix(2,0,0,2,82.7076,22)"
font-family="sans" font-size="11" font-weight="100" font-style="normal" 
>
</g>

<g fill="#000000" fill-opacity="1" stroke="#000000" stroke-opacity="1" stroke-width="1" stroke-linecap="square" stroke-linejoin="round" transform="matrix(2,0,0,2,82.7076,22)"
font-family="sans" font-size="11" font-weight="100" font-style="normal" 
>
<path vector-effect="none" fill-rule="nonzero" d="M2.96875,2.98438 L3.53125,2.98438 L0.734375,12.0156 L0.171875,12.0156 L2.96875,2.98438 M7.35938,7.60938 C6.55729,7.60938 5.98177,7.75 5.63281,8.03125 C5.28385,8.3125 5.10938,8.72396 5.10938,9.26563 C5.10938,9.79688 5.25521,10.1745 5.54688,10.3984 C5.83854,10.6224 6.18229,10.7344 6.57813,10.7344 C7.32813,10.7344 7.86979,10.4167 8.20313,9.78125 C8.53646,9.13542 8.70313,8.53125 8.70313,7.96875 L8.70313,7.60938 L7.35938,7.60938 M9.20313,7.5625 L9.20313,11 L8.70313,11 L8.70313,9.35938 C8.43229,10.1615 8.06771,10.6719 7.60938,10.8906 C7.25521,11.0677 6.89583,11.1563 6.53125,11.1563 C5.9375,11.1563 5.46875,10.9948 5.125,10.6719 C4.78125,10.349 4.60938,9.8776 4.60938,9.25781 C4.60938,8.63802 4.83333,8.14063 5.28125,7.76563 C5.72917,7.39063 6.45833,7.20313 7.46875,7.20313 L8.70313,7.20313 L8.70313,7.10938 C8.70313,6.57813 8.54688,6.14063 8.23438,5.79688 C7.94271,5.45313 7.44792,5.28125 6.75,5.28125 C6.40625,5.28125 6.05729,5.34375 5.70313,5.46875 C5.47396,5.55208 5.17188,5.71875 4.79688,5.96875 L4.79688,5.4375 C5.11979,5.23958 5.42188,5.09896 5.70313,5.01563 C6.09896,4.90104 6.47917,4.84375 6.84375,4.84375 C7.5625,4.84375 8.15104,5.05729 8.60938,5.48438 C9.00521,5.84896 9.20313,6.54167 9.20313,7.5625 M11.6719,4.98438 L12.1719,4.98438 L12.1719,11 L11.6719,11 L11.6719,4.98438 M11.6719,2.64063 L12.1719,2.64063 L12.1719,3.3125 L11.6719,3.3125 L11.6719,2.64063"/>
</g>

<g fill="none" stroke="#000000" stroke-opacity="1" stroke-width="1" stroke-linecap="square" stroke-linejoin="bevel" transform="matrix(2,0,0,2,82.7076,22)"
font-family="sans" font-size="11" font-weight="100" font-style="normal" 
>
</g>

<g fill="none" stroke="#000000" stroke-opacity="1" stroke-width="1" stroke-linecap="square" stroke-linejoin="bevel" transform="matrix(2,0,0,2,82.7076,22)"
font-family="Ubuntu" font-size="11" font-weight="400" font-style="normal" 
>
</g>

<g fill="none" stroke="#000000" stroke-opacity="1" stroke-width="1" stroke-linecap="square" stroke-linejoin="bevel" transform="matrix(2,0,0,2,1.42109e-14,234)"
font-family="Ubuntu" font-size="11" font-weight="400" font-style="normal" 
>
</g>

<g fill="none" stroke="#000000" stroke-opacity="1" stroke-width="1" stroke-linecap="square" stroke-linejoin="bevel" transform="matrix(2,0,0,2,1.42109e-14,234)"
font-family="Ubuntu" font-size="11" font-weight="400" font-style="normal" 
>
</g>

<g fill="none" stroke="#000000" stroke-opacity="1" stroke-width="1" stroke-linecap="square" stroke-linejoin="bevel" transform="matrix(2,0,0,2,1.42109e-14,234)"
font-family="Ubuntu" font-size="11" font-weight="400" font-style="normal" 
>
</g>

<g fill="none" stroke="#000000" stroke-opacity="1" stroke-width="1" stroke-linecap="square" stroke-linejoin="round" transform="matrix(2,0,0,2,1.42109e-14,234)"
font-family="Ubuntu" font-size="11" font-weight="400" font-style="normal" 
>
<ellipse cx="48.096" cy="-45" rx="47.596" ry="17.5"/>
</g>

<g fill="none" stroke="#000000" stroke-opacity="1" stroke-width="1" stroke-linecap="square" stroke-linejoin="bevel" transform="matrix(2,0,0,2,1.42109e-14,234)"
font-family="Ubuntu" font-size="11" font-weight="400" font-style="normal" 
>
</g>

<g fill="none" stroke="#000000" stroke-opacity="1" stroke-width="1" stroke-linecap="square" stroke-linejoin="bevel" transform="matrix(2,0,0,2,50.9889,130)"
font-family="Ubuntu" font-size="11" font-weight="400" font-style="normal" 
>
</g>

<g fill="none" stroke="#000000" stroke-opacity="1" stroke-width="1" stroke-linecap="square" stroke-linejoin="bevel" transform="matrix(2,0,0,2,50.9889,130)"
font-family="sans" font-size="11" font-weight="100" font-style="normal" 
>
</g>

<g fill="#000000" fill-opacity="1" stroke="#000000" stroke-opacity="1" stroke-width="1" stroke-linecap="square" stroke-linejoin="round" transform="matrix(2,0,0,2,50.9889,130)"
font-family="sans" font-size="11" font-weight="100" font-style="normal" 
>
<path vector-effect="none" fill-rule="nonzero" d="M2.96875,2.98438 L3.53125,2.98438 L0.734375,12.0156 L0.171875,12.0156 L2.96875,2.98438 M9.0625,5.28125 L9.0625,5.79688 C8.77083,5.61979 8.52604,5.5 8.32813,5.4375 C7.99479,5.33333 7.67708,5.28125 7.375,5.28125 C6.51042,5.28125 5.89063,5.5026 5.51563,5.94531 C5.14063,6.38802 4.95313,7.07292 4.95313,8 C4.95313,8.9375 5.14063,9.6276 5.51563,10.0703 C5.89063,10.513 6.51042,10.7344 7.375,10.7344 C7.66667,10.7344 7.94792,10.6927 8.21875,10.6094 C8.51042,10.5365 8.79167,10.4219 9.0625,10.2656 L9.0625,10.7656 C8.79167,10.901 8.51042,11 8.21875,11.0625 C7.91667,11.125 7.61979,11.1563 7.32813,11.1563 C6.45313,11.1563 5.75521,10.9167 5.23438,10.4375 C4.71354,9.95833 4.45313,9.14323 4.45313,7.99219 C4.45313,6.84115 4.71354,6.02604 5.23438,5.54688 C5.75521,5.07813 6.45313,4.84375 7.32813,4.84375 C7.61979,4.84375 7.92708,4.88542 8.25,4.96875 C8.57292,5.04167 8.84375,5.14583 9.0625,5.28125 M13.4063,7.60938 C12.6042,7.60938 12.0286,7.75 11.6797,8.03125 C11.3307,8.3125 11.1563,8.72396 11.1563,9.26563 C11.1563,9.79688 11.3021,10.1745 11.5938,10.3984 C11.8854,10.6224 12.2292,10.7344 12.625,10.7344 C13.375,10.7344 13.9167,10.4167 14.25,9.78125 C14.5833,9.13542 14.75,8.53125 14.75,7.96875 L14.75,7.60938 L13.4063,7.60938 M15.25,7.5625 L15.25,11 L14.75,11 L14.75,9.35938 C14.4792,10.1615 14.1146,10.6719 13.6563,10.8906 C13.3021,11.0677 12.9427,11.1563 12.5781,11.1563 C11.9844,11.1563 11.5156,10.9948 11.1719,10.6719 C10.8281,10.349 10.6563,9.8776 10.6563,9.25781 C10.6563,8.63802 10.8802,8.14063 11.3281,7.76563 C11.776,7.39063 12.5052,7.20313 13.5156,7.20313 L14.75,7.20313 L14.75,7.10938 C14.75,6.57813 14.5938,6.14063 14.2813,5.79688 C13.9896,5.45313 13.4948,5.28125 12.7969,5.28125 C12.4531,5.28125 12.1042,5.34375 11.75,5.46875 C11.5208,5.55208 11.2188,5.71875 10.8438,5.96875 L10.8438,5.4375 C11.1667,5.23958 11.4688,5.09896 11.75,5.01563 C12.1458,4.90104 12.526,4.84375 12.8906,4.84375 C13.6094,4.84375 14.1979,5.05729 14.6563,5.48438 C15.0521,5.84896 15.25,6.54167 15.25,7.5625 M22.0625,6.29688 C22.25,5.80729 22.5417,5.44271 22.9375,5.20313 C23.3229,4.96354 23.776,4.84375 24.2969,4.84375 C24.8177,4.84375 25.2344,5.02604 25.5469,5.39063 C25.8698,5.75521 26.0313,6.41667 26.0313,7.375 L26.0313,11 L25.5469,11 L25.5469,7.40625 C25.5469,6.57292 25.4323,6.01042 25.2031,5.71875 C24.974,5.42708 24.6667,5.28125 24.2813,5.28125 C23.7292,5.28125 23.2448,5.44792 22.8281,5.78125 C22.3594,6.15625 22.125,6.76042 22.125,7.59375 L22.125,11 L21.6406,11 L21.6406,7.40625 C21.6406,6.60417 21.5286,6.04948 21.3047,5.74219 C21.0807,5.4349 20.7708,5.28125 20.375,5.28125 C19.8229,5.28125 19.3385,5.45313 18.9219,5.79688 C18.4531,6.16146 18.2188,6.76042 18.2188,7.59375 L18.2188,11 L17.7344,11 L17.7344,4.98438 L18.2188,4.98438 L18.2188,6.10938 C18.3958,5.71354 18.6719,5.40104 19.0469,5.17188 C19.4115,4.95313 19.8646,4.84375 20.4063,4.84375 C20.7604,4.84375 21.099,4.95833 21.4219,5.1875 C21.6719,5.375 21.8854,5.74479 22.0625,6.29688 M33.125,7.75 L33.125,8.0625 L28.5625,8.0625 C28.5625,9.02083 28.75,9.69792 29.125,10.0938 C29.5417,10.5208 30.1563,10.7344 30.9688,10.7344 C31.1875,10.7344 31.474,10.6875 31.8281,10.5938 C32.1823,10.5 32.5365,10.3594 32.8906,10.1719 L32.8906,10.6875 C32.5365,10.8438 32.1745,10.9609 31.8047,11.0391 C31.4349,11.1172 31.1406,11.1563 30.9219,11.1563 C29.9948,11.1563 29.2969,10.9063 28.8281,10.4063 C28.3177,9.875 28.0625,9.09375 28.0625,8.0625 C28.0625,6.98958 28.2917,6.1875 28.75,5.65625 C29.2292,5.11458 29.8958,4.84375 30.75,4.84375 C31.5313,4.84375 32.125,5.10417 32.5313,5.625 C32.9271,6.16667 33.125,6.875 33.125,7.75 M32.625,7.64063 C32.625,6.79688 32.4323,6.18229 32.0469,5.79688 C31.7344,5.45313 31.3021,5.28125 30.75,5.28125 C30.1563,5.28125 29.6563,5.45833 29.25,5.8125 C28.875,6.14583 28.651,6.75521 28.5781,7.64063 L32.625,7.64063 M38.4688,5.40625 C38.3854,5.36458 38.276,5.33333 38.1406,5.3125 C38.0156,5.29167 37.8646,5.28125 37.6875,5.28125 C37.0729,5.28125 36.5677,5.50521 36.1719,5.95313 C35.849,6.31771 35.6875,6.94271 35.6875,7.82813 L35.6875,11 L35.2031,11 L35.2031,4.98438 L35.6875,4.98438 L35.6875,6.10938 C35.8542,5.78646 36.0833,5.51563 36.375,5.29688 C36.7708,4.99479 37.2396,4.84375 37.7813,4.84375 C37.9271,4.84375 38.0521,4.84896 38.1563,4.85938 C38.2604,4.85938 38.3646,4.86979 38.4688,4.89063 L38.4688,5.40625 M42.125,7.60938 C41.3229,7.60938 40.7474,7.75 40.3984,8.03125 C40.0495,8.3125 39.875,8.72396 39.875,9.26563 C39.875,9.79688 40.0208,10.1745 40.3125,10.3984 C40.6042,10.6224 40.9479,10.7344 41.3438,10.7344 C42.0938,10.7344 42.6354,10.4167 42.9688,9.78125 C43.3021,9.13542 43.4688,8.53125 43.4688,7.96875 L43.4688,7.60938 L42.125,7.60938 M43.9688,7.5625 L43.9688,11 L43.4688,11 L43.4688,9.35938 C43.1979,10.1615 42.8333,10.6719 42.375,10.8906 C42.0208,11.0677 41.6615,11.1563 41.2969,11.1563 C40.7031,11.1563 40.2344,10.9948 39.8906,10.6719 C39.5469,10.349 39.375,9.8776 39.375,9.25781 C39.375,8.63802 39.599,8.14063 40.0469,7.76563 C40.4948,7.39063 41.224,7.20313 42.2344,7.20313 L43.4688,7.20313 L43.4688,7.10938 C43.4688,6.57813 43.3125,6.14063 43,5.79688 C42.7083,5.45313 42.2135,5.28125 41.5156,5.28125 C41.1719,5.28125 40.8229,5.34375 40.4688,5.46875 C40.2396,5.55208 39.9375,5.71875 39.5625,5.96875 L39.5625,5.4375 C39.8854,5.23958 40.1875,5.09896 40.4688,5.01563 C40.8646,4.90104 41.2448,4.84375 41.6094,4.84375 C42.3281,4.84375 42.9167,5.05729 43.375,5.48438 C43.7708,5.84896 43.9688,6.54167 43.9688,7.5625 "/>
</g>

<g fill="none" stroke="#000000" stroke-opacity="1" stroke-width="1" stroke-linecap="square" stroke-linejoin="bevel" transform="matrix(2,0,0,2,50.9889,130)"
font-family="sans" font-size="11" font-weight="100" font-style="normal" 
>
</g>

<g fill="none" stroke="#000000" stroke-opacity="1" stroke-width="1" stroke-linecap="square" stroke-linejoin="bevel" transform="matrix(2,0,0,2,50.9889,130)"
font-family="Ubuntu" font-size="11" font-weight="400" font-style="normal" 
>
</g>

<g fill="none" stroke="#000000" stroke-opacity="1" stroke-width="1" stroke-linecap="square" stroke-linejoin="bevel" transform="matrix(2,0,0,2,1.42109e-14,234)"
font-family="Ubuntu" font-size="11" font-weight="400" font-style="normal" 
>
</g>

<g fill="none" stroke="#000000" stroke-opacity="1" stroke-width="1" stroke-linecap="square" stroke-linejoin="bevel" transform="matrix(2,0,0,2,1.42109e-14,234)"
font-family="Ubuntu" font-size="11" font-weight="400" font-style="normal" 
>
</g>

<g fill="none" stroke="#000000" stroke-opacity="1" stroke-width="1" stroke-linecap="square" stroke-linejoin="bevel" transform="matrix(2,0,0,2,1.42109e-14,234)"
font-family="Ubuntu" font-size="11" font-weight="400" font-style="normal" 
>
</g>

<g fill="none" stroke="#000000" stroke-opacity="1" stroke-width="1" stroke-linecap="square" stroke-linejoin="round" transform="matrix(2,0,0,2,1.42109e-14,234)"
font-family="Ubuntu" font-size="11" font-weight="400" font-style="normal" 
>
<path vector-effect="none" fill-rule="evenodd" d="M506.6,-33.433 C509.85,-33.957 513.1,-34.481 516.33,-35.002 "/>
</g>

<g fill="none" stroke="#000000" stroke-opacity="1" stroke-width="1" stroke-linecap="square" stroke-linejoin="bevel" transform="matrix(2,0,0,2,1.42109e-14,234)"
font-family="Ubuntu" font-size="11" font-weight="400" font-style="normal" 
>
</g>

<g fill="none" stroke="#000000" stroke-opacity="1" stroke-width="1" stroke-linecap="square" stroke-linejoin="bevel" transform="matrix(2,0,0,2,1.42109e-14,234)"
font-family="Ubuntu" font-size="11" font-weight="400" font-style="normal" 
>
</g>

<g fill="#000000" fill-opacity="1" stroke="#000000" stroke-opacity="1" stroke-width="1" stroke-linecap="square" stroke-linejoin="round" transform="matrix(2,0,0,2,1.42109e-14,234)"
font-family="Ubuntu" font-size="11" font-weight="400" font-style="normal" 
>
<path vector-effect="none" fill-rule="evenodd" d="M516.33,-35.002 L516.905,-31.439 L526.51,-36.644 L515.755,-38.565 L516.33,-35.002"/>
</g>

<g fill="none" stroke="#000000" stroke-opacity="1" stroke-width="1" stroke-linecap="square" stroke-linejoin="bevel" transform="matrix(2,0,0,2,1.42109e-14,234)"
font-family="Ubuntu" font-size="11" font-weight="400" font-style="normal" 
>
</g>

<g fill="none" stroke="#000000" stroke-opacity="1" stroke-width="1" stroke-linecap="square" stroke-linejoin="bevel" transform="matrix(2,0,0,2,1.42109e-14,234)"
font-family="Ubuntu" font-size="11" font-weight="400" font-style="normal" 
>
</g>

<g fill="none" stroke="#000000" stroke-opacity="1" stroke-width="1" stroke-linecap="square" stroke-linejoin="bevel" transform="matrix(2,0,0,2,1.42109e-14,234)"
font-family="Ubuntu" font-size="11" font-weight="400" font-style="normal" 
>
</g>

<g fill="none" stroke="#000000" stroke-opacity="1" stroke-width="1" stroke-linecap="square" stroke-linejoin="bevel" transform="matrix(2,0,0,2,1.42109e-14,234)"
font-family="Ubuntu" font-size="11" font-weight="400" font-style="normal" 
>
</g>

<g fill="none" stroke="#000000" stroke-opacity="1" stroke-width="1" stroke-linecap="square" stroke-linejoin="round" transform="matrix(2,0,0,2,1.42109e-14,234)"
font-family="Ubuntu" font-size="11" font-weight="400" font-style="normal" 
>
<path vector-effect="none" fill-rule="evenodd" d="M349.26,-66.208 C397.23,-61.767 463.28,-55.652 512.13,-51.129 "/>
</g>

<g fill="none" stroke="#000000" stroke-opacity="1" stroke-width="1" stroke-linecap="square" stroke-linejoin="bevel" transform="matrix(2,0,0,2,1.42109e-14,234)"
font-family="Ubuntu" font-size="11" font-weight="400" font-style="normal" 
>
</g>

<g fill="none" stroke="#000000" stroke-opacity="1" stroke-width="1" stroke-linecap="square" stroke-linejoin="bevel" transform="matrix(2,0,0,2,1.42109e-14,234)"
font-family="Ubuntu" font-size="11" font-weight="400" font-style="normal" 
>
</g>

<g fill="#000000" fill-opacity="1" stroke="#000000" stroke-opacity="1" stroke-width="1" stroke-linecap="square" stroke-linejoin="round" transform="matrix(2,0,0,2,1.42109e-14,234)"
font-family="Ubuntu" font-size="11" font-weight="400" font-style="normal" 
>
<path vector-effect="none" fill-rule="evenodd" d="M512.13,-51.129 L511.801,-47.5765 L522.28,-50.189 L512.459,-54.6815 L512.13,-51.129"/>
</g>

<g fill="none" stroke="#000000" stroke-opacity="1" stroke-width="1" stroke-linecap="square" stroke-linejoin="bevel" transform="matrix(2,0,0,2,1.42109e-14,234)"
font-family="Ubuntu" font-size="11" font-weight="400" font-style="normal" 
>
</g>

<g fill="none" stroke="#000000" stroke-opacity="1" stroke-width="1" stroke-linecap="square" stroke-linejoin="bevel" transform="matrix(2,0,0,2,1.42109e-14,234)"
font-family="Ubuntu" font-size="11" font-weight="400" font-style="normal" 
>
</g>

<g fill="none" stroke="#000000" stroke-opacity="1" stroke-width="1" stroke-linecap="square" stroke-linejoin="bevel" transform="matrix(2,0,0,2,1.42109e-14,234)"
font-family="Ubuntu" font-size="11" font-weight="400" font-style="normal" 
>
</g>

<g fill="none" stroke="#000000" stroke-opacity="1" stroke-width="1" stroke-linecap="square" stroke-linejoin="bevel" transform="matrix(2,0,0,2,1.42109e-14,234)"
font-family="Ubuntu" font-size="11" font-weight="400" font-style="normal" 
>
</g>

<g fill="none" stroke="#000000" stroke-opacity="1" stroke-width="1" stroke-linecap="square" stroke-linejoin="round" transform="matrix(2,0,0,2,1.42109e-14,234)"
font-family="Ubuntu" font-size="11" font-weight="400" font-style="normal" 
>
<path vector-effect="none" fill-rule="evenodd" d="M208.33,-20.453 C211.05,-20.366 213.82,-20.277 216.6,-20.188 "/>
</g>

<g fill="none" stroke="#000000" stroke-opacity="1" stroke-width="1" stroke-linecap="square" stroke-linejoin="bevel" transform="matrix(2,0,0,2,1.42109e-14,234)"
font-family="Ubuntu" font-size="11" font-weight="400" font-style="normal" 
>
</g>

<g fill="none" stroke="#000000" stroke-opacity="1" stroke-width="1" stroke-linecap="square" stroke-linejoin="bevel" transform="matrix(2,0,0,2,1.42109e-14,234)"
font-family="Ubuntu" font-size="11" font-weight="400" font-style="normal" 
>
</g>

<g fill="#000000" fill-opacity="1" stroke="#000000" stroke-opacity="1" stroke-width="1" stroke-linecap="square" stroke-linejoin="round" transform="matrix(2,0,0,2,1.42109e-14,234)"
font-family="Ubuntu" font-size="11" font-weight="400" font-style="normal" 
>
<path vector-effect="none" fill-rule="evenodd" d="M216.6,-20.188 L216.486,-16.6495 L226.71,-19.863 L216.714,-23.7265 L216.6,-20.188"/>
</g>

<g fill="none" stroke="#000000" stroke-opacity="1" stroke-width="1" stroke-linecap="square" stroke-linejoin="bevel" transform="matrix(2,0,0,2,1.42109e-14,234)"
font-family="Ubuntu" font-size="11" font-weight="400" font-style="normal" 
>
</g>

<g fill="none" stroke="#000000" stroke-opacity="1" stroke-width="1" stroke-linecap="square" stroke-linejoin="bevel" transform="matrix(2,0,0,2,1.42109e-14,234)"
font-family="Ubuntu" font-size="11" font-weight="400" font-style="normal" 
>
</g>

<g fill="none" stroke="#000000" stroke-opacity="1" stroke-width="1" stroke-linecap="square" stroke-linejoin="bevel" transform="matrix(2,0,0,2,1.42109e-14,234)"
font-family="Ubuntu" font-size="11" font-weight="400" font-style="normal" 
>
</g>

<g fill="none" stroke="#000000" stroke-opacity="1" stroke-width="1" stroke-linecap="square" stroke-linejoin="bevel" transform="matrix(2,0,0,2,1.42109e-14,234)"
font-family="Ubuntu" font-size="11" font-weight="400" font-style="normal" 
>
</g>

<g fill="none" stroke="#000000" stroke-opacity="1" stroke-width="1" stroke-linecap="square" stroke-linejoin="round" transform="matrix(2,0,0,2,1.42109e-14,234)"
font-family="Ubuntu" font-size="11" font-weight="400" font-style="normal" 
>
<path vector-effect="none" fill-rule="evenodd" d="M94.242,-50.174 C127.48,-53.983 173.38,-59.243 211.79,-63.645 "/>
</g>

<g fill="none" stroke="#000000" stroke-opacity="1" stroke-width="1" stroke-linecap="square" stroke-linejoin="bevel" transform="matrix(2,0,0,2,1.42109e-14,234)"
font-family="Ubuntu" font-size="11" font-weight="400" font-style="normal" 
>
</g>

<g fill="none" stroke="#000000" stroke-opacity="1" stroke-width="1" stroke-linecap="square" stroke-linejoin="bevel" transform="matrix(2,0,0,2,1.42109e-14,234)"
font-family="Ubuntu" font-size="11" font-weight="400" font-style="normal" 
>
</g>

<g fill="#000000" fill-opacity="1" stroke="#000000" stroke-opacity="1" stroke-width="1" stroke-linecap="square" stroke-linejoin="round" transform="matrix(2,0,0,2,1.42109e-14,234)"
font-family="Ubuntu" font-size="11" font-weight="400" font-style="normal" 
>
<path vector-effect="none" fill-rule="evenodd" d="M211.79,-63.645 L212.195,-60.11 L221.89,-64.803 L211.385,-67.18 L211.79,-63.645"/>
</g>

<g fill="none" stroke="#000000" stroke-opacity="1" stroke-width="1" stroke-linecap="square" stroke-linejoin="bevel" transform="matrix(2,0,0,2,1.42109e-14,234)"
font-family="Ubuntu" font-size="11" font-weight="400" font-style="normal" 
>
</g>

<g fill="none" stroke="#000000" stroke-opacity="1" stroke-width="1" stroke-linecap="square" stroke-linejoin="bevel" transform="matrix(2,0,0,2,1.42109e-14,234)"
font-family="Ubuntu" font-size="11" font-weight="400" font-style="normal" 
>
</g>

<g fill="none" stroke="#000000" stroke-opacity="1" stroke-width="1" stroke-linecap="square" stroke-linejoin="bevel" transform="matrix(2,0,0,2,1.42109e-14,234)"
font-family="Ubuntu" font-size="11" font-weight="400" font-style="normal" 
>
</g>

<g fill="none" stroke="#000000" stroke-opacity="1" stroke-width="1" stroke-linecap="square" stroke-linejoin="bevel" transform="matrix(2,0,0,2,1.42109e-14,234)"
font-family="Ubuntu" font-size="11" font-weight="400" font-style="normal" 
>
</g>

<g fill="none" stroke="#000000" stroke-opacity="1" stroke-width="1" stroke-linecap="square" stroke-linejoin="round" transform="matrix(2,0,0,2,1.42109e-14,234)"
font-family="Ubuntu" font-size="11" font-weight="400" font-style="normal" 
>
<path vector-effect="none" fill-rule="evenodd" d="M90.34,-36.305 C93.538,-35.63 96.801,-34.943 100.08,-34.251 "/>
</g>

<g fill="none" stroke="#000000" stroke-opacity="1" stroke-width="1" stroke-linecap="square" stroke-linejoin="bevel" transform="matrix(2,0,0,2,1.42109e-14,234)"
font-family="Ubuntu" font-size="11" font-weight="400" font-style="normal" 
>
</g>

<g fill="none" stroke="#000000" stroke-opacity="1" stroke-width="1" stroke-linecap="square" stroke-linejoin="bevel" transform="matrix(2,0,0,2,1.42109e-14,234)"
font-family="Ubuntu" font-size="11" font-weight="400" font-style="normal" 
>
</g>

<g fill="#000000" fill-opacity="1" stroke="#000000" stroke-opacity="1" stroke-width="1" stroke-linecap="square" stroke-linejoin="round" transform="matrix(2,0,0,2,1.42109e-14,234)"
font-family="Ubuntu" font-size="11" font-weight="400" font-style="normal" 
>
<path vector-effect="none" fill-rule="evenodd" d="M100.08,-34.251 L99.3534,-30.8035 L109.93,-32.175 L100.807,-37.6985 L100.08,-34.251"/>
</g>

<g fill="none" stroke="#000000" stroke-opacity="1" stroke-width="1" stroke-linecap="square" stroke-linejoin="bevel" transform="matrix(2,0,0,2,1.42109e-14,234)"
font-family="Ubuntu" font-size="11" font-weight="400" font-style="normal" 
>
</g>

<g fill="none" stroke="#000000" stroke-opacity="1" stroke-width="1" stroke-linecap="square" stroke-linejoin="bevel" transform="matrix(2,0,0,2,1.42109e-14,234)"
font-family="Ubuntu" font-size="11" font-weight="400" font-style="normal" 
>
</g>

<g fill="none" stroke="#000000" stroke-opacity="1" stroke-width="1" stroke-linecap="square" stroke-linejoin="bevel" transform="matrix(2,0,0,2,1.42109e-14,234)"
font-family="Ubuntu" font-size="11" font-weight="400" font-style="normal" 
>
</g>

<g fill="none" stroke="#000000" stroke-opacity="1" stroke-width="1" stroke-linecap="square" stroke-linejoin="bevel" transform="matrix(2,0,0,2,1.42109e-14,234)"
font-family="Ubuntu" font-size="11" font-weight="400" font-style="normal" 
>
</g>

<g fill="none" stroke="#000000" stroke-opacity="1" stroke-width="1" stroke-linecap="square" stroke-linejoin="round" transform="matrix(2,0,0,2,1.42109e-14,234)"
font-family="Ubuntu" font-size="11" font-weight="400" font-style="normal" 
>
<path vector-effect="none" fill-rule="evenodd" d="M344.79,-19.581 C347.39,-19.652 350.01,-19.723 352.65,-19.795 "/>
</g>

<g fill="none" stroke="#000000" stroke-opacity="1" stroke-width="1" stroke-linecap="square" stroke-linejoin="bevel" transform="matrix(2,0,0,2,1.42109e-14,234)"
font-family="Ubuntu" font-size="11" font-weight="400" font-style="normal" 
>
</g>

<g fill="none" stroke="#000000" stroke-opacity="1" stroke-width="1" stroke-linecap="square" stroke-linejoin="bevel" transform="matrix(2,0,0,2,1.42109e-14,234)"
font-family="Ubuntu" font-size="11" font-weight="400" font-style="normal" 
>
</g>

<g fill="#000000" fill-opacity="1" stroke="#000000" stroke-opacity="1" stroke-width="1" stroke-linecap="square" stroke-linejoin="round" transform="matrix(2,0,0,2,1.42109e-14,234)"
font-family="Ubuntu" font-size="11" font-weight="400" font-style="normal" 
>
<path vector-effect="none" fill-rule="evenodd" d="M352.65,-19.795 L352.747,-16.2215 L362.86,-20.073 L352.553,-23.3685 L352.65,-19.795"/>
</g>

<g fill="none" stroke="#000000" stroke-opacity="1" stroke-width="1" stroke-linecap="square" stroke-linejoin="bevel" transform="matrix(2,0,0,2,1.42109e-14,234)"
font-family="Ubuntu" font-size="11" font-weight="400" font-style="normal" 
>
</g>

<g fill="none" stroke="#000000" stroke-opacity="1" stroke-width="1" stroke-linecap="square" stroke-linejoin="bevel" transform="matrix(1,0,0,1,0,0)"
font-family="Ubuntu" font-size="11" font-weight="400" font-style="normal" 
>
</g>
</g>
</svg>
